<svg id="ecAYPs4oEzm1" xmlns="http://www.w3.org/2000/svg" xmlns:xlink="http://www.w3.org/1999/xlink" viewBox="0 0 1500 220" shape-rendering="geometricPrecision" text-rendering="geometricPrecision" project-id="ed6cd4127e304be580465c5b193f5ff5" export-id="adcf45a53997457eafe8e7c43603206b" cached="false"><g transform="translate(23.243802-1.549588)"><g transform="translate(-10.847107-1.376121)"><rect width="631.886" height="210.471" rx="0" ry="0" transform="translate(859.818 13.3094)" fill="none"/><g transform="matrix(-.658349 0 0 0.651072 1625.51-550.744537)"><g transform="translate(-11.040559 0.00005)"><g><path d="M179.48897,393.78646c0,0,25.1-24.1,61.4-32.6c62.4-3.2,95.6-14.5,161.1,24.8l54.3,2.6c4.8-.4,8.9,3.6,8.6,8.5-.4,6.2-1.4,11.8-1.5,14.2-.3,4.3,8,7.5,7.4,20.6s-8.4,27.7-8.4,27.7l-34.4,3.5-67.8,3.5-205.2,2.4h-66.8c0,0-21.2-5.3-22.8-11.4v-5l1.9-.4c0,0-4.2-11.4-3.9-23.8s1.9-15.6,1.9-15.6s39.3-17.6,114.2-19Z" fill="#e6e7e8"/><g><path d="M71.58897,417.28646c.1-.7,7.2-4.2,10.2-3.6c3,.5,9.8,12.9,9.7,12.6s-19.2,1.4-19.2,1.4-1.5-5.4-.7-10.4Z" fill="#d1d2d1"/><path d="M91.38897,426.18646c.1.3-6.7-12.1-9.7-12.6-1-.2-2.4.1-3.8.5c2.2,4,4,8.2,5.5,12.6c4.2-.3,8-.6,8-.5Z" fill="#efc41a"/></g><path d="M63.48897,428.58646c0,1.7,0,3.3.1,4.9c2.4,1.3,4.4,1.9,4.4,1.9v-18.7l-3.4-.8c-.5,2.3-1,6.2-1.1,12.7Z" fill="#898a8e"/><g><path d="M169.48896,468.88645l190.60001-2.39999l19-.89999v-5.40001h-209.60001v8.69999Z" fill="#939598"/><g><path d="M280.28897,461.28646c-2.6-24.2,6.2-60.1,6.3-60.4l1,.3c-.1.4-8.8,36.1-6.2,60l-1.1.1Z" fill="#939598"/></g><g><path d="M176.18897,461.28646c-2.6-24.2,6.2-60.1,6.3-60.4l1,.3c-.1.4-8.8,36.1-6.2,60l-1.1.1Z" fill="#939598"/></g><g><path d="M379.68898,424.68646h-1.10001v-17.9l-6-7.90001.89999-.59999l6.20002,8.2v18.2Z" fill="#939598"/></g><path d="M277.58897,414.08646c0,0-61.8.6-77.5,10.8-5.8,3.8,1.8,28.6,8.5,30.7s135.5-1.5,135.5-1.5-125.6.3-130.2-2.1-13.5-14.1-11.4-23.2c2.2-8.9,75.1-14.7,75.1-14.7Z" fill="#939598"/><g><path d="M275.68897,412.08646h-12.1c-1,0-1.9-.8-1.9-1.9v0c0-1,.8-1.9,1.9-1.9h12.1c1,0,1.9.8,1.9,1.9v0c0,1.1-.9,1.9-1.9,1.9Z" fill="#939598"/><path d="M371.68897,409.58646h-12.1c-1,0-1.9-.8-1.9-1.9v0c0-1,.8-1.9,1.9-1.9h12.1c1,0,1.9.8,1.9,1.9v0c0,1.1-.8,1.9-1.9,1.9Z" fill="#939598"/></g><path d="M463.28897,411.48646c0-.1,0-.2,0-.3c0-.3,0-.6.1-1l-15.8,9.6-34.2,5l.2,1.1l34.5-5l15.2-9.4Z" fill="#939598"/><path d="M470.68897,431.08646c.1-1.9-.1-3.5-.3-5l-28.5,9.3l28.8-4.3Z" fill="#939598"/><path d="M63.78897,436.28646c1,9,3.5,16,3.5,16c4.6,2.7,17.8,2.2,17.8,2.2v-11.1c-10.3.4-18.4-4.8-21.3-7.1Z" fill="#939598"/><path d="M449.38897,427.58646h-9.8c-.9,0-1.7-.8-1.7-1.7v0c0-.9.8-1.7,1.7-1.7h9.8c.9,0,1.7.8,1.7,1.7v0c0,1-.8,1.7-1.7,1.7Z" fill="#939598"/></g><g><path d="M173.18897,457.28646c0-21.7-16.8-39.4-37.5-39.4s-37.5,17.6-37.5,39.4c0,.4,0,5,0,11.2c1.2.3,1.9.5,1.9.5h54.9l18.1-.2c.1-6.4.1-11.1.1-11.5Z" fill="#000002"/><path d="M166.88898,457.28646c0,17.231284-13.968716,31.2-31.2,31.2-8.274756.000003-16.210601-3.28713-22.061738-9.138265s-9.138272-13.786979-9.138272-22.061735s3.287135-16.2106,9.138272-22.061735s13.786982-9.138268,22.061738-9.138265c17.231284,0,31.2,13.968716,31.2,31.2Z" fill="#0e0f12"/><path d="M166.88898,457.28646c0,17.231284-13.968716,31.2-31.2,31.2-8.274756.000003-16.210601-3.28713-22.061738-9.138265s-9.138272-13.786979-9.138272-22.061735s3.287135-16.2106,9.138272-22.061735s13.786982-9.138268,22.061738-9.138265c17.231284,0,31.2,13.968716,31.2,31.2Z"/><path d="M165.38898,457.28646c0,16.402858-13.297143,29.7-29.7,29.7-7.876931.000003-15.431245-3.129094-21.001078-8.698925s-8.698932-13.124144-8.698932-21.001075s3.129099-15.431244,8.698932-21.001075s13.124146-8.698928,21.001078-8.698925c16.402857,0,29.7,13.297143,29.7,29.7Z" fill="#17191b"/><path d="M157.68898,457.28646c0,12.150264-9.849736,22-22,22s-22-9.849736-22-22s9.849736-22,22-22s22,9.849736,22,22Z" fill="#565f65"/><path d="M155.58898,457.28646c0,10.990467-8.909533,19.9-19.9,19.9s-19.9-8.909533-19.9-19.9s8.909533-19.9,19.9-19.9s19.9,8.909533,19.9,19.9Z" fill="#898a8e"/><g><path d="M141.48897,438.18646c-1.8-.6-3.8-.9-5.8-.9-.9,0-1.8.1-2.7.2l2.7,19.8l5.8-19.1Z" fill="#d1d2d1"/><path d="M153.28897,447.88646c-1.4-2.6-3.3-4.8-5.6-6.5l-12,15.9l17.6-9.4Z" fill="#d1d2d1"/><path d="M154.68897,463.08646c.6-1.8.9-3.8.9-5.8c0-.9-.1-1.8-.2-2.7l-19.8,2.7l19.1,5.8Z" fill="#d1d2d1"/><path d="M144.98897,474.88646c2.6-1.4,4.8-3.3,6.5-5.6l-15.9-12l9.4,17.6Z" fill="#d1d2d1"/><path d="M129.78897,476.38646c1.8.6,3.8.9,5.8.9.9,0,1.8-.1,2.7-.2l-2.7-19.8-5.8,19.1Z" fill="#d1d2d1"/><path d="M118.08897,466.68646c1.4,2.6,3.3,4.8,5.6,6.5l12-15.9-17.6,9.4Z" fill="#d1d2d1"/><path d="M116.58897,451.48646c-.6,1.8-.9,3.8-.9,5.8c0,.9.1,1.8.2,2.7l19.8-2.7-19.1-5.8Z" fill="#d1d2d1"/><path d="M126.28897,439.68646c-2.6,1.4-4.8,3.3-6.5,5.6l15.9,12-9.4-17.6Z" fill="#d1d2d1"/></g><path d="M141.68898,457.28646c0,3.313708-2.686292,6-6,6s-6-2.686292-6-6s2.686292-6,6-6s6,2.686292,6,6Z" fill="#565f65"/><path d="M138.48898,457.28646c0,.742606-.294999,1.454797-.820101,1.979899s-1.237293.820101-1.979899.820101-1.454797-.294999-1.979899-.820101-.820101-1.237293-.820101-1.979899.294999-1.454797.820101-1.979899s1.237293-.820101,1.979899-.820101s1.454797.294999,1.979899.820101.820101,1.237293.820101,1.979899Z" fill="#9aa7b0"/></g><g><path d="M394.98897,417.88646c-20.7,0-37.5,17.6-37.5,39.4c0,.3,0,4,0,9.3h2.6l67.8-3.5l4.6-.5c0-3,0-5,0-5.2c0-21.8-16.8-39.5-37.5-39.5Z" fill="#000002"/><path d="M426.18896,457.28646c0,17.231284-13.968716,31.2-31.2,31.2s-31.2-13.968716-31.2-31.2s13.968716-31.2,31.2-31.2s31.2,13.968716,31.2,31.2Z" fill="#0e0f12"/><path d="M426.18896,457.28646c0,17.231284-13.968716,31.2-31.2,31.2s-31.2-13.968716-31.2-31.2s13.968716-31.2,31.2-31.2s31.2,13.968716,31.2,31.2Z"/><path d="M424.68896,457.28646c0,16.402858-13.297143,29.7-29.7,29.7s-29.7-13.297143-29.7-29.7s13.297143-29.7,29.7-29.7s29.7,13.297143,29.7,29.7Z" fill="#17191b"/><path d="M416.98896,457.28646c0,12.150264-9.849736,22-22,22s-22-9.849736-22-22s9.849736-22,22-22s22,9.849736,22,22Z" fill="#565f65"/><path d="M414.88896,457.28646c0,10.990467-8.909533,19.9-19.9,19.9s-19.9-8.909533-19.9-19.9s8.909533-19.9,19.9-19.9s19.9,8.909533,19.9,19.9Z" fill="#898a8e"/><g><path d="M400.78897,438.18646c-1.8-.6-3.8-.9-5.8-.9-.9,0-1.8.1-2.7.2l2.7,19.8l5.8-19.1Z" fill="#d1d2d1"/><path d="M412.58897,447.88646c-1.4-2.6-3.3-4.8-5.6-6.5l-12,15.9l17.6-9.4Z" fill="#d1d2d1"/><path d="M414.08897,463.08646c.6-1.8.9-3.8.9-5.8c0-.9-.1-1.8-.2-2.7l-19.8,2.7l19.1,5.8Z" fill="#d1d2d1"/><path d="M404.38897,474.88646c2.6-1.4,4.8-3.3,6.5-5.6l-15.9-12l9.4,17.6Z" fill="#d1d2d1"/><path d="M389.18897,476.38646c1.8.6,3.8.9,5.8.9.9,0,1.8-.1,2.7-.2l-2.7-19.8-5.8,19.1Z" fill="#d1d2d1"/><path d="M377.38897,466.68646c1.4,2.6,3.3,4.8,5.6,6.5l12-15.9-17.6,9.4Z" fill="#d1d2d1"/><path d="M375.88897,451.48646c-.6,1.8-.9,3.8-.9,5.8c0,.9.1,1.8.2,2.7l19.8-2.7-19.1-5.8Z" fill="#d1d2d1"/><path d="M385.58897,439.68646c-2.6,1.4-4.8,3.3-6.5,5.6l15.9,12-9.4-17.6Z" fill="#d1d2d1"/></g><path d="M400.98896,457.28646c0,3.313708-2.686292,6-6,6s-6-2.686292-6-6s2.686292-6,6-6s6,2.686292,6,6Z" fill="#565f65"/><path d="M397.78896,457.28646c0,.742606-.294999,1.454797-.820101,1.979899s-1.237293.820101-1.979899.820101-1.454797-.294999-1.979899-.820101-.820101-1.237293-.820101-1.979899.294999-1.454797.820101-1.979899s1.237293-.820101,1.979899-.820101s1.454797.294999,1.979899.820101.820101,1.237293.820101,1.979899Z" fill="#9aa7b0"/></g><g><path d="M228.28897,406.68646c-26.4,0-40.1-1.6-43.7-2.1h-.2c-2.9-.6-3.8-4.2-1.6-6.2v0c6.2-5.3,28.8-23.3,58.6-30.4l.3-.1h.3c5.9-.3,11.6-.7,17.1-1c14.2-.9,27.7-1.7,40.6-1.7c27.6,0,49,3.7,71.7,12.5l2.3.9v21.1h-3.5c-.4,0-11.8.1-82.8,4.8-21.5,1.4-41.4,2.2-59.1,2.2c0,0,0,0,0,0Z" fill="#17191b"/><path d="M287.08897,400.98646c72.4-4.8,83-4.8,83-4.8v-15.1c-25.3-9.8-47.3-12.3-70.4-12.3-12.8,0-26.2.8-40.4,1.7-5.5.3-11.3.7-17.2,1-28.7,6.8-50.4,23.9-57.1,29.6c4.9.6,35.9,4.3,102.1-.1Z" fill="#73d0f2"/><g><path d="M216.88897,402.98646l31.9-31.9c-2.2.1-4.4.2-6.7.4-.2,0-.3.1-.5.1l-31.3,31.3c2.1,0,4.3.1,6.6.1Z" fill="#b7e4f6"/><path d="M259.28897,370.48646c-1.2.1-2.5.2-3.8.2l-32.4,32.4c2.1,0,4.4,0,6.7,0l32.9-32.9c-1.2.1-2.3.2-3.4.3Z" fill="#b7e4f6"/><path d="M276.38897,369.48646c-2.3.1-4.7.2-7.1.4l-33.2,33.2c2.2,0,4.5-.1,6.8-.1l33.5-33.5Z" fill="#b7e4f6"/><path d="M288.08897,400.88646c2.5-.2,4.8-.3,7.2-.5l30.3-30.3c-2-.2-4.1-.4-6.1-.6l-31.4,31.4Z" fill="#b7e4f6"/><path d="M336.88897,371.68646c-1.9-.3-3.9-.6-5.8-.9l-29.1,29.2c2.5-.2,4.9-.3,7.1-.5l27.8-27.8Z" fill="#b7e4f6"/><path d="M347.68897,373.98646c-1.8-.4-3.6-.9-5.5-1.2l-26.4,26.4c2.5-.2,4.9-.3,7.1-.4l24.8-24.8Z" fill="#b7e4f6"/></g><path d="M355.58897,374.28646l-1.20001,24h4.80002v-22.90001l-3.60001-1.09999Z" fill="#17191b"/><path d="M286.98897,366.28646l-7.6,36.5c0,0,15.3-1.1,15.1-1.7-.2-.7,2.1-34.8,2.1-34.8h-9.6Z" fill="#17191b"/></g><path d="M194.68897,392.68646c-3.1.7-8.8,2-10.5,2.7c0,0-1.5,7.4,2.6,9.9c2.6,1.6,6,2.2,8.1,2.5c1.1.1,2-.7,2-1.8v-11.6c0-1.1-1.1-2-2.2-1.7Z" fill="#939598"/></g><g><path d="M1063.68897,393.78646c0,0,25.1-24.1,61.4-32.6c62.4-3.2,95.6-14.5,161.1,24.8l54.3,2.6c4.8-.4,8.9,3.6,8.6,8.5-.4,6.2-1.4,11.8-1.5,14.2-.3,4.3,8,7.5,7.4,20.6s-8.4,27.7-8.4,27.7l-34.4,3.5-67.8,3.5-205.1,2.5h-66.8c0,0-21.2-5.3-22.8-11.4v-5l1.9-.4c0,0-4.2-11.4-3.9-23.8s1.9-15.6,1.9-15.6s39.3-17.7,114.1-19.1Z" fill="#ffde17"/><g><path d="M955.78897,417.28646c.1-.7,7.2-4.2,10.2-3.6c3,.5,9.8,12.9,9.7,12.6s-19.2,1.4-19.2,1.4-1.5-5.4-.7-10.4Z" fill="#d1d2d1"/><path d="M975.68897,426.18646c.1.3-6.7-12.1-9.7-12.6-1-.2-2.4.1-3.8.5c2.2,4,4,8.2,5.5,12.6c4.2-.3,7.9-.6,8-.5Z" fill="#efc41a"/></g><path d="M947.68897,428.58646c0,1.7,0,3.3.1,4.9c2.4,1.3,4.4,1.9,4.4,1.9v-18.7l-3.4-.8c-.4,2.3-.9,6.2-1.1,12.7Z" fill="#898a8e"/><g><path d="M1053.78892,468.88645l190.6001-2.39999l19-.89999v-5.40001h-209.6001v8.69999Z" fill="#fcb325"/><g><path d="M1164.48897,461.28646c-2.6-24.2,6.2-60.1,6.3-60.4l1,.3c-.1.4-8.8,36.1-6.2,60l-1.1.1Z" fill="#fcb325"/></g><g><path d="M1060.38897,461.28646c-2.6-24.2,6.2-60.1,6.3-60.4l1,.3c-.1.4-8.8,36.1-6.2,60l-1.1.1Z" fill="#fcb325"/></g><g><path d="M1263.88902,424.68646h-1.1001v-17.9l-5.8999-7.90001.79993-.59999l6.20007,8.2v18.2Z" fill="#fcb325"/></g><path d="M1161.78897,414.08646c0,0-61.8.6-77.5,10.8-5.8,3.8,1.8,28.6,8.5,30.7s135.5-1.5,135.5-1.5-125.6.3-130.2-2.1-13.5-14.1-11.4-23.2c2.2-8.9,75.1-14.7,75.1-14.7Z" fill="#fcb325"/><g><path d="M1159.88897,412.08646h-12.1c-1,0-1.9-.8-1.9-1.9v0c0-1,.8-1.9,1.9-1.9h12.1c1,0,1.9.8,1.9,1.9v0c0,1.1-.8,1.9-1.9,1.9Z" fill="#fcb325"/><path d="M1255.98897,409.58646h-12.1c-1,0-1.9-.8-1.9-1.9v0c0-1,.8-1.9,1.9-1.9h12.1c1,0,1.9.8,1.9,1.9v0c0,1.1-.9,1.9-1.9,1.9Z" fill="#fcb325"/></g><path d="M1347.48897,411.48646c0-.1,0-.2,0-.3c0-.3,0-.6.1-1l-15.8,9.6-34.2,5l.2,1.1l34.5-5l15.2-9.4Z" fill="#fcb325"/><path d="M1354.88897,431.08646c.1-1.9-.1-3.5-.3-5l-28.5,9.3l28.8-4.3Z" fill="#fcb325"/><path d="M947.98897,436.28646c1,9,3.5,16,3.5,16c4.6,2.7,17.8,2.2,17.8,2.2v-11.1c-10.3.4-18.3-4.8-21.3-7.1Z" fill="#fcb325"/><path d="M1333.58897,427.58646h-9.8c-.9,0-1.7-.8-1.7-1.7v0c0-.9.8-1.7,1.7-1.7h9.8c.9,0,1.7.8,1.7,1.7v0c0,1-.7,1.7-1.7,1.7Z" fill="#ad1015"/></g><g><path d="M1057.38897,457.28646c0-21.7-16.8-39.4-37.5-39.4s-37.5,17.6-37.5,39.4c0,.4,0,5,0,11.2c1.2.3,1.9.5,1.9.5h54.9l18.1-.2c.1-6.4.1-11.1.1-11.5Z" fill="#000002"/><path d="M1051.08902,457.28646c0,8.274754-3.287133,16.210597-9.138268,22.061732s-13.786978,9.138268-22.061732,9.138268-16.210597-3.287133-22.061732-9.138268-9.138268-13.786978-9.138268-22.061732s3.287133-16.210597,9.138268-22.061732s13.786978-9.138268,22.061732-9.138268s16.210597,3.287133,22.061732,9.138268s9.138268,13.786978,9.138268,22.061732Z" fill="#0e0f12"/><path d="M1051.08902,457.28646c0,8.274754-3.287133,16.210597-9.138268,22.061732s-13.786978,9.138268-22.061732,9.138268-16.210597-3.287133-22.061732-9.138268-9.138268-13.786978-9.138268-22.061732s3.287133-16.210597,9.138268-22.061732s13.786978-9.138268,22.061732-9.138268s16.210597,3.287133,22.061732,9.138268s9.138268,13.786978,9.138268,22.061732Z"/><path d="M1049.58902,457.28646c0,7.87693-3.129098,15.431241-8.698929,21.001072s-13.124142,8.698928-21.001071,8.698928-15.431241-3.129098-21.001071-8.698929-8.698929-13.124141-8.698929-21.001071s3.129098-15.431241,8.698929-21.001072s13.124142-8.698928,21.001071-8.698928s15.431241,3.129098,21.001071,8.698929s8.698929,13.124141,8.698929,21.001071Z" fill="#17191b"/><path d="M1041.88902,457.28646c0,12.150264-9.849736,22-22,22s-22-9.849736-22-22s9.849736-22,22-22s22,9.849736,22,22Z" fill="#565f65"/><path d="M1039.78902,457.28646c0,10.990467-8.909533,19.9-19.9,19.9s-19.9-8.909533-19.9-19.9s8.909533-19.9,19.9-19.9s19.9,8.909533,19.9,19.9Z" fill="#898a8e"/><g><path d="M1025.68897,438.18646c-1.8-.6-3.8-.9-5.8-.9-.9,0-1.8.1-2.7.2l2.7,19.8l5.8-19.1Z" fill="#d1d2d1"/><path d="M1037.48897,447.88646c-1.4-2.6-3.3-4.8-5.6-6.5l-12,15.9l17.6-9.4Z" fill="#d1d2d1"/><path d="M1038.98897,463.08646c.6-1.8.9-3.8.9-5.8c0-.9-.1-1.8-.2-2.7l-19.8,2.7l19.1,5.8Z" fill="#d1d2d1"/><path d="M1029.28897,474.88646c2.6-1.4,4.8-3.3,6.5-5.6l-15.9-12l9.4,17.6Z" fill="#d1d2d1"/><path d="M1014.08897,476.38646c1.8.6,3.8.9,5.8.9.9,0,1.8-.1,2.7-.2l-2.7-19.8-5.8,19.1Z" fill="#d1d2d1"/><path d="M1002.28897,466.68646c1.4,2.6,3.3,4.8,5.6,6.5l12-15.9-17.6,9.4Z" fill="#d1d2d1"/><path d="M1000.78897,451.48646c-.6,1.8-.9,3.8-.9,5.8c0,.9.1,1.8.2,2.7l19.8-2.7-19.1-5.8Z" fill="#d1d2d1"/><path d="M1010.48897,439.68646c-2.6,1.4-4.8,3.3-6.5,5.6l15.9,12-9.4-17.6Z" fill="#d1d2d1"/></g><path d="M1025.88902,457.28646c0,3.313708-2.686292,6-6,6s-6-2.686292-6-6s2.686292-6,6-6s6,2.686292,6,6Z" fill="#565f65"/><path d="M1022.68902,457.28646c0,1.546397-1.253603,2.8-2.8,2.8s-2.8-1.253603-2.8-2.8s1.253603-2.8,2.8-2.8s2.8,1.253603,2.8,2.8Z" fill="#9aa7b0"/></g><g><path d="M1279.28897,417.88646c-20.7,0-37.5,17.6-37.5,39.4c0,.3,0,4,0,9.3h2.6l67.8-3.5l4.6-.5c0-3,0-5,0-5.2-.1-21.8-16.8-39.5-37.5-39.5Z" fill="#000002"/><path d="M1310.48892,457.28646c0,8.274754-3.287133,16.210597-9.138268,22.061732s-13.786978,9.138268-22.061732,9.138268-16.210597-3.287133-22.061732-9.138268-9.138268-13.786978-9.138268-22.061732s3.287133-16.210597,9.138268-22.061732s13.786978-9.138268,22.061732-9.138268s16.210597,3.287133,22.061732,9.138268s9.138268,13.786978,9.138268,22.061732Z" fill="#0e0f12"/><path d="M1310.48892,457.28646c0,8.274754-3.287133,16.210597-9.138268,22.061732s-13.786978,9.138268-22.061732,9.138268-16.210597-3.287133-22.061732-9.138268-9.138268-13.786978-9.138268-22.061732s3.287133-16.210597,9.138268-22.061732s13.786978-9.138268,22.061732-9.138268s16.210597,3.287133,22.061732,9.138268s9.138268,13.786978,9.138268,22.061732Z"/><path d="M1308.98892,457.28646c0,7.87693-3.129098,15.431241-8.698929,21.001072s-13.124142,8.698928-21.001071,8.698928-15.431241-3.129098-21.001071-8.698929-8.698929-13.124141-8.698929-21.001071s3.129098-15.431241,8.698929-21.001072s13.124142-8.698928,21.001071-8.698928s15.431241,3.129098,21.001071,8.698929s8.698929,13.124141,8.698929,21.001071Z" fill="#17191b"/><path d="M1301.28892,457.28646c0,12.150264-9.849736,22-22,22s-22-9.849736-22-22s9.849736-22,22-22s22,9.849736,22,22Z" fill="#565f65"/><path d="M1299.18892,457.28646c0,5.277808-2.096601,10.339451-5.828575,14.071425s-8.793617,5.828575-14.071425,5.828575-10.339451-2.096601-14.071425-5.828575-5.828575-8.793617-5.828575-14.071425s2.096601-10.339451,5.828575-14.071425s8.793617-5.828575,14.071425-5.828575s10.339451,2.096601,14.071425,5.828575s5.828575,8.793617,5.828575,14.071425Z" fill="#898a8e"/><g><path d="M1285.08897,438.18646c-1.8-.6-3.8-.9-5.8-.9-.9,0-1.8.1-2.7.2l2.7,19.8l5.8-19.1Z" fill="#d1d2d1"/><path d="M1296.88897,447.88646c-1.4-2.6-3.3-4.8-5.6-6.5l-12,15.9l17.6-9.4Z" fill="#d1d2d1"/><path d="M1298.28897,463.08646c.6-1.8.9-3.8.9-5.8c0-.9-.1-1.8-.2-2.7l-19.8,2.7l19.1,5.8Z" fill="#d1d2d1"/><path d="M1288.58897,474.88646c2.6-1.4,4.8-3.3,6.5-5.6l-15.9-12l9.4,17.6Z" fill="#d1d2d1"/><path d="M1273.38897,476.38646c1.8.6,3.8.9,5.8.9.9,0,1.8-.1,2.7-.2l-2.7-19.8-5.8,19.1Z" fill="#d1d2d1"/><path d="M1261.58897,466.68646c1.4,2.6,3.3,4.8,5.6,6.5l12-15.9-17.6,9.4Z" fill="#d1d2d1"/><path d="M1260.18897,451.48646c-.6,1.8-.9,3.8-.9,5.8c0,.9.1,1.8.2,2.7l19.8-2.7-19.1-5.8Z" fill="#d1d2d1"/><path d="M1269.88897,439.68646c-2.6,1.4-4.8,3.3-6.5,5.6l15.9,12-9.4-17.6Z" fill="#d1d2d1"/></g><path d="M1285.28892,457.28646c0,3.313708-2.686292,6-6,6s-6-2.686292-6-6s2.686292-6,6-6s6,2.686292,6,6Z" fill="#565f65"/><path d="M1282.08892,457.28646c0,1.546397-1.253603,2.8-2.8,2.8s-2.8-1.253603-2.8-2.8s1.253603-2.8,2.8-2.8s2.8,1.253603,2.8,2.8Z" fill="#9aa7b0"/></g><g><path d="M1112.48897,406.68646c-26.4,0-40.1-1.6-43.7-2.1h-.2c-2.9-.6-3.8-4.2-1.6-6.2v0c6.2-5.3,28.8-23.3,58.6-30.4l.3-.1h.3c5.9-.3,11.6-.7,17.1-1c14.2-.9,27.7-1.7,40.6-1.7c27.6,0,49,3.7,71.7,12.5l2.3.9v21.1h-3.5c-.4,0-11.8.1-82.8,4.8-21.5,1.4-41.3,2.2-59.1,2.2c0,0,0,0,0,0Z" fill="#17191b"/><path d="M1171.28897,400.98646c72.4-4.8,83-4.8,83-4.8v-15.1c-25.3-9.8-47.3-12.3-70.4-12.3-12.8,0-26.2.8-40.4,1.7-5.5.3-11.3.7-17.2,1-28.7,6.8-50.4,23.9-57.1,29.6c4.9.6,36,4.3,102.1-.1Z" fill="#73d0f2"/><g><path d="M1101.08897,402.98646l31.9-31.9c-2.2.1-4.4.2-6.7.4-.2,0-.3.1-.5.1l-31.3,31.3c2.1,0,4.3.1,6.6.1Z" fill="#b7e4f6"/><path d="M1143.48897,370.48646c-1.2.1-2.5.2-3.8.2l-32.4,32.4c2.1,0,4.4,0,6.7,0l32.9-32.9c-1.2.1-2.3.2-3.4.3Z" fill="#b7e4f6"/><path d="M1160.58897,369.48646c-2.3.1-4.7.2-7.1.4l-33.2,33.2c2.2,0,4.5-.1,6.8-.1l33.5-33.5Z" fill="#b7e4f6"/><path d="M1172.28897,400.88646c2.5-.2,4.8-.3,7.2-.5l30.3-30.3c-2-.2-4.1-.4-6.1-.6l-31.4,31.4Z" fill="#b7e4f6"/><path d="M1221.18897,371.68646c-1.9-.3-3.9-.6-5.8-.9l-29.2,29.2c2.5-.2,4.9-.3,7.1-.5l27.9-27.8Z" fill="#b7e4f6"/><path d="M1231.88897,373.98646c-1.8-.4-3.6-.9-5.5-1.2l-26.4,26.4c2.5-.2,4.9-.3,7.1-.4l24.8-24.8Z" fill="#b7e4f6"/></g><path d="M1239.78892,374.28646l-1.19995,24h4.80005v-22.90001l-3.6001-1.09999Z" fill="#17191b"/><path d="M1171.18897,366.28646l-7.6,36.5c0,0,15.3-1.1,15.1-1.7-.2-.7,2.1-34.8,2.1-34.8h-9.6Z" fill="#17191b"/></g><path d="M1078.98897,392.68646c-3.1.7-8.8,2-10.5,2.7c0,0-1.5,7.4,2.6,9.9c2.6,1.6,6,2.2,8.1,2.5c1.1.1,2-.7,2-1.8v-11.6c-.1-1.1-1.1-2-2.2-1.7Z" fill="#fcb325"/></g><g><path d="M618.28897,393.78646c0,0,25.1-24.1,61.4-32.6c62.4-3.2,95.6-14.5,161.1,24.8l54.3,2.6c4.8-.4,8.9,3.6,8.6,8.5-.4,6.2-1.4,11.8-1.5,14.2-.3,4.3,8,7.5,7.4,20.6s-8.4,27.7-8.4,27.7l-34.4,3.5-67.8,3.5-205.2,2.4h-66.8c0,0-21.2-5.3-22.8-11.4v-5l1.9-.4c0,0-4.2-11.4-3.9-23.8s1.9-15.6,1.9-15.6s39.3-17.6,114.2-19Z" fill="#3d1c5b"/><g><path d="M510.38897,417.28646c.1-.7,7.2-4.2,10.2-3.6c3,.5,9.8,12.9,9.7,12.6s-19.2,1.4-19.2,1.4-1.5-5.4-.7-10.4Z" fill="#d1d2d1"/><path d="M530.28897,426.18646c.1.3-6.7-12.1-9.7-12.6-1-.2-2.4.1-3.8.5c2.2,4,4,8.2,5.5,12.6c4.2-.3,7.9-.6,8-.5Z" fill="#efc41a"/></g><path d="M502.28897,428.58646c0,1.7,0,3.3.1,4.9c2.4,1.3,4.4,1.9,4.4,1.9v-18.7l-3.4-.8c-.4,2.3-1,6.2-1.1,12.7Z" fill="#898a8e"/><g><path d="M608.38896,468.88645l190.60003-2.39999l18.89997-.89999v-5.40001h-209.5v8.69999Z" fill="#20093b"/><g><path d="M719.08897,461.28646c-2.6-24.2,6.2-60.1,6.3-60.4l1,.3c-.1.4-8.8,36.1-6.2,60l-1.1.1Z" fill="#20093b"/></g><g><path d="M614.98897,461.28646c-2.6-24.2,6.2-60.1,6.3-60.4l1,.3c-.1.4-8.8,36.1-6.2,60l-1.1.1Z" fill="#20093b"/></g><g><path d="M818.48899,424.68646h-1.10003v-17.9l-5.89997-7.90001.79999-.59999l6.20001,8.2v18.2Z" fill="#20093b"/></g><path d="M716.38897,414.08646c0,0-61.8.6-77.5,10.8-5.8,3.8,1.8,28.6,8.5,30.7s135.5-1.5,135.5-1.5-125.6.3-130.2-2.1-13.5-14.1-11.4-23.2c2.2-8.9,75.1-14.7,75.1-14.7Z" fill="#20093b"/><g><path d="M714.48897,412.08646h-12.1c-1,0-1.9-.8-1.9-1.9v0c0-1,.8-1.9,1.9-1.9h12.1c1,0,1.9.8,1.9,1.9v0c0,1.1-.9,1.9-1.9,1.9Z" fill="#20093b"/><path d="M810.48897,409.58646h-12.1c-1,0-1.9-.8-1.9-1.9v0c0-1,.8-1.9,1.9-1.9h12.1c1,0,1.9.8,1.9,1.9v0c0,1.1-.8,1.9-1.9,1.9Z" fill="#20093b"/></g><path d="M902.08897,411.48646c0-.1,0-.2,0-.3c0-.3,0-.6.1-1l-15.8,9.6-34.2,5l.2,1.1l34.5-5l15.2-9.4Z" fill="#20093b"/><path d="M909.48897,431.08646c.1-1.9-.1-3.5-.3-5l-28.5,9.3l28.8-4.3Z" fill="#20093b"/><path d="M502.58897,436.28646c1,9,3.5,16,3.5,16c4.6,2.7,17.8,2.2,17.8,2.2v-11.1c-10.3.4-18.4-4.8-21.3-7.1Z" fill="#20093b"/><path d="M888.18897,427.58646h-9.8c-.9,0-1.7-.8-1.7-1.7v0c0-.9.8-1.7,1.7-1.7h9.8c.9,0,1.7.8,1.7,1.7v0c0,1-.7,1.7-1.7,1.7Z" fill="#ad1015"/></g><g><path d="M611.98897,457.28646c0-21.7-16.8-39.4-37.5-39.4s-37.5,17.6-37.5,39.4c0,.4,0,5,0,11.2c1.2.3,1.9.5,1.9.5h54.9l18.1-.2c.1-6.4.1-11.1.1-11.5Z" fill="#000002"/><path d="M605.68899,457.28646c0,8.274754-3.287133,16.210597-9.138268,22.061732s-13.786978,9.138268-22.061732,9.138268-16.210597-3.287133-22.061732-9.138268-9.138268-13.786978-9.138268-22.061732s3.287133-16.210597,9.138268-22.061732s13.786978-9.138268,22.061732-9.138268s16.210597,3.287133,22.061732,9.138268s9.138268,13.786978,9.138268,22.061732Z" fill="#0e0f12"/><path d="M605.68899,457.28646c0,8.274754-3.287133,16.210597-9.138268,22.061732s-13.786978,9.138268-22.061732,9.138268-16.210597-3.287133-22.061732-9.138268-9.138268-13.786978-9.138268-22.061732s3.287133-16.210597,9.138268-22.061732s13.786978-9.138268,22.061732-9.138268s16.210597,3.287133,22.061732,9.138268s9.138268,13.786978,9.138268,22.061732Z"/><path d="M604.18899,457.28646c0,7.87693-3.129098,15.431241-8.698929,21.001072s-13.124142,8.698928-21.001071,8.698928-15.431241-3.129098-21.001071-8.698929-8.698929-13.124141-8.698929-21.001071s3.129098-15.431241,8.698929-21.001072s13.124142-8.698928,21.001071-8.698928s15.431241,3.129098,21.001071,8.698929s8.698929,13.124141,8.698929,21.001071Z" fill="#17191b"/><path d="M596.48899,457.28646c0,12.150264-9.849736,22-22,22s-22-9.849736-22-22s9.849736-22,22-22s22,9.849736,22,22Z" fill="#565f65"/><path d="M594.38899,457.28646c0,10.990467-8.909533,19.9-19.9,19.9s-19.89999-8.909537-19.89999-19.9s8.909527-19.899994,19.89999-19.9s19.9,8.909533,19.9,19.9Z" fill="#898a8e"/><g><path d="M580.28897,438.18646c-1.8-.6-3.8-.9-5.8-.9-.9,0-1.8.1-2.7.2l2.7,19.8l5.8-19.1Z" fill="#d1d2d1"/><path d="M592.08897,447.88646c-1.4-2.6-3.3-4.8-5.6-6.5l-12,15.9l17.6-9.4Z" fill="#d1d2d1"/><path d="M593.58897,463.08646c.6-1.8.9-3.8.9-5.8c0-.9-.1-1.8-.2-2.7l-19.8,2.7l19.1,5.8Z" fill="#d1d2d1"/><path d="M583.88897,474.88646c2.6-1.4,4.8-3.3,6.5-5.6l-15.9-12l9.4,17.6Z" fill="#d1d2d1"/><path d="M568.68897,476.38646c1.8.6,3.8.9,5.8.9.9,0,1.8-.1,2.7-.2l-2.7-19.8-5.8,19.1Z" fill="#d1d2d1"/><path d="M556.88897,466.68646c1.4,2.6,3.3,4.8,5.6,6.5l12-15.9-17.6,9.4Z" fill="#d1d2d1"/><path d="M555.38897,451.48646c-.6,1.8-.9,3.8-.9,5.8c0,.9.1,1.8.2,2.7l19.8-2.7-19.1-5.8Z" fill="#d1d2d1"/><path d="M565.08897,439.68646c-2.6,1.4-4.8,3.3-6.5,5.6l15.9,12-9.4-17.6Z" fill="#d1d2d1"/></g><path d="M580.48899,457.28646c0,3.313708-2.686292,6-6,6s-6-2.686292-6-6s2.686292-6,6-6s6,2.686292,6,6Z" fill="#565f65"/><path d="M577.28899,457.28646c0,1.546397-1.253603,2.8-2.8,2.8s-2.8-1.253603-2.8-2.8s1.253603-2.8,2.8-2.8s2.8,1.253603,2.8,2.8Z" fill="#9aa7b0"/></g><g><path d="M833.78897,417.88646c-20.7,0-37.5,17.6-37.5,39.4c0,.3,0,4,0,9.3h2.6l67.8-3.5l4.6-.5c0-3,0-5,0-5.2c0-21.8-16.8-39.5-37.5-39.5Z" fill="#000002"/><path d="M864.98898,457.28646c0,8.274754-3.287133,16.210597-9.138268,22.061732s-13.786978,9.138268-22.061732,9.138268-16.210597-3.287133-22.061732-9.138268-9.138268-13.786978-9.138268-22.061732s3.287133-16.210597,9.138268-22.061732s13.786978-9.138268,22.061732-9.138268s16.210597,3.287133,22.061732,9.138268s9.138268,13.786978,9.138268,22.061732Z" fill="#0e0f12"/><path d="M864.98898,457.28646c0,8.274754-3.287133,16.210597-9.138268,22.061732s-13.786978,9.138268-22.061732,9.138268-16.210597-3.287133-22.061732-9.138268-9.138268-13.786978-9.138268-22.061732s3.287133-16.210597,9.138268-22.061732s13.786978-9.138268,22.061732-9.138268s16.210597,3.287133,22.061732,9.138268s9.138268,13.786978,9.138268,22.061732Z"/><path d="M863.48898,457.28646c0,7.87693-3.129098,15.431241-8.698929,21.001072s-13.124142,8.698928-21.001071,8.698928-15.431241-3.129098-21.001071-8.698929-8.698929-13.124141-8.698929-21.001071s3.129098-15.431241,8.698929-21.001072s13.124142-8.698928,21.001071-8.698928s15.431241,3.129098,21.001071,8.698929s8.698929,13.124141,8.698929,21.001071Z" fill="#17191b"/><path d="M855.78898,457.28646c0,12.150264-9.849736,22-22,22s-22-9.849736-22-22s9.849736-22,22-22s22,9.849736,22,22Z" fill="#565f65"/><path d="M853.68898,457.28646c0,10.990467-8.909533,19.9-19.9,19.9s-19.9-8.909533-19.9-19.9s8.909533-19.9,19.9-19.9s19.9,8.909533,19.9,19.9Z" fill="#898a8e"/><g><path d="M839.68897,438.18646c-1.8-.6-3.8-.9-5.8-.9-.9,0-1.8.1-2.7.2l2.7,19.8l5.8-19.1Z" fill="#d1d2d1"/><path d="M851.38897,447.88646c-1.4-2.6-3.3-4.8-5.6-6.5l-12,15.9l17.6-9.4Z" fill="#d1d2d1"/><path d="M852.88897,463.08646c.6-1.8.9-3.8.9-5.8c0-.9-.1-1.8-.2-2.7l-19.8,2.7l19.1,5.8Z" fill="#d1d2d1"/><path d="M843.18897,474.88646c2.6-1.4,4.8-3.3,6.5-5.6l-15.9-12l9.4,17.6Z" fill="#d1d2d1"/><path d="M827.98897,476.38646c1.8.6,3.8.9,5.8.9.9,0,1.8-.1,2.7-.2l-2.7-19.8-5.8,19.1Z" fill="#d1d2d1"/><path d="M816.18897,466.68646c1.4,2.6,3.3,4.8,5.6,6.5l12-15.9-17.6,9.4Z" fill="#d1d2d1"/><path d="M814.78897,451.48646c-.6,1.8-.9,3.8-.9,5.8c0,.9.1,1.8.2,2.7l19.8-2.7-19.1-5.8Z" fill="#d1d2d1"/><path d="M824.48897,439.68646c-2.6,1.4-4.8,3.3-6.5,5.6l15.9,12-9.4-17.6Z" fill="#d1d2d1"/></g><path d="M839.78898,457.28646c0,3.313708-2.686292,6-6,6s-6-2.686292-6-6s2.686292-6,6-6s6,2.686292,6,6Z" fill="#565f65"/><path d="M836.58898,457.28646c0,1.546397-1.253603,2.8-2.8,2.8s-2.8-1.253603-2.8-2.8s1.253603-2.8,2.8-2.8s2.8,1.253603,2.8,2.8Z" fill="#9aa7b0"/></g><g><path d="M667.08897,406.68646c-26.4,0-40.1-1.6-43.7-2.1h-.2c-2.9-.6-3.8-4.2-1.6-6.2v0c6.2-5.3,28.8-23.3,58.6-30.4l.3-.1h.3c5.9-.3,11.6-.7,17.1-1c14.2-.9,27.7-1.7,40.6-1.7c27.6,0,49,3.7,71.7,12.5l2.3.9v21.1h-3.5c-.4,0-11.8.1-82.8,4.8-21.5,1.4-41.4,2.2-59.1,2.2c0,0,0,0,0,0Z" fill="#17191b"/><path d="M725.88897,400.98646c72.4-4.8,83-4.8,83-4.8v-15.1c-25.3-9.8-47.3-12.3-70.4-12.3-12.8,0-26.2.8-40.4,1.7-5.5.3-11.3.7-17.2,1-28.7,6.8-50.4,23.9-57.1,29.6c4.9.6,35.9,4.3,102.1-.1Z" fill="#73d0f2"/><g><path d="M655.68897,402.98646l31.9-31.9c-2.2.1-4.4.2-6.7.4-.2,0-.3.1-.5.1l-31.3,31.3c2.1,0,4.3.1,6.6.1Z" fill="#b7e4f6"/><path d="M698.08897,370.48646c-1.2.1-2.5.2-3.8.2l-32.4,32.4c2.1,0,4.4,0,6.7,0l32.9-32.9c-1.2.1-2.3.2-3.4.3Z" fill="#b7e4f6"/><path d="M715.18897,369.48646c-2.3.1-4.7.2-7.1.4l-33.2,33.2c2.2,0,4.5-.1,6.8-.1l33.5-33.5Z" fill="#b7e4f6"/><path d="M726.88897,400.88646c2.5-.2,4.8-.3,7.2-.5l30.3-30.3c-2-.2-4.1-.4-6.1-.6l-31.4,31.4Z" fill="#b7e4f6"/><path d="M775.68897,371.68646c-1.9-.3-3.9-.6-5.8-.9l-29.1,29.2c2.5-.2,4.9-.3,7.1-.5l27.8-27.8Z" fill="#b7e4f6"/><path d="M786.48897,373.98646c-1.8-.4-3.6-.9-5.5-1.2l-26.4,26.4c2.5-.2,4.9-.3,7.1-.4l24.8-24.8Z" fill="#b7e4f6"/></g><path d="M794.38896,374.28646l-1.20001,24h4.80004v-22.90001l-3.60003-1.09999Z" fill="#17191b"/><path d="M725.78897,366.28646l-7.6,36.5c0,0,15.3-1.1,15.1-1.7-.2-.7,2.1-34.8,2.1-34.8h-9.6Z" fill="#17191b"/></g><path d="M633.58897,392.68646c-3.1.7-8.8,2-10.5,2.7c0,0-1.5,7.4,2.6,9.9c2.6,1.6,6,2.2,8.1,2.5c1.1.1,2-.7,2-1.8v-11.6c-.1-1.1-1.1-2-2.2-1.7Z" fill="#20093b"/></g><g><path d="M179.48897,557.28646c0,0,25.1-24.1,61.4-32.6c62.4-3.2,95.6-14.5,161.1,24.8l54.3,2.6c4.8-.4,8.9,3.6,8.6,8.5-.4,6.2-1.4,11.8-1.5,14.2-.3,4.3,8,7.5,7.4,20.6s-8.4,27.7-8.4,27.7l-34.4,3.5-67.8,3.5-205.1,2.5h-66.8c0,0-21.2-5.3-22.8-11.4v-5l1.9-.4c0,0-4.2-11.4-3.9-23.8s1.9-15.6,1.9-15.6s39.2-17.7,114.1-19.1Z" fill="#f05d96"/><g><path d="M71.58897,580.78646c.1-.7,7.2-4.2,10.2-3.6c3,.5,9.8,12.9,9.7,12.6s-19.2,1.4-19.2,1.4-1.5-5.4-.7-10.4Z" fill="#d1d2d1"/><path d="M91.38897,589.68646c.1.3-6.7-12.1-9.7-12.6-1-.2-2.4.1-3.8.5c2.2,4,4,8.2,5.5,12.6c4.2-.3,8-.6,8-.5Z" fill="#efc41a"/></g><path d="M63.48897,592.08646c0,1.7,0,3.3.1,4.9c2.4,1.3,4.4,1.9,4.4,1.9v-18.7l-3.4-.8c-.5,2.3-1,6.2-1.1,12.7Z" fill="#898a8e"/><g><path d="M169.48896,632.28645l190.60001-2.29999l19-1v-5.29999h-209.60001v8.59998Z" fill="#db3d78"/><g><path d="M280.28897,624.78646c-2.6-24.2,6.2-60.1,6.3-60.4l1,.3c-.1.4-8.8,36.1-6.2,60l-1.1.1Z" fill="#db3d78"/></g><g><path d="M176.18897,624.78646c-2.6-24.2,6.2-60.1,6.3-60.4l1,.3c-.1.4-8.8,36.1-6.2,60l-1.1.1Z" fill="#db3d78"/></g><g><path d="M379.68898,588.18647h-1.10001v-17.90002l-6-7.9.89999-.6l6.20002,8.20001v18.20001Z" fill="#db3d78"/></g><path d="M277.58897,577.58646c0,0-61.8.6-77.5,10.8-5.8,3.8,1.8,28.6,8.5,30.7s135.5-1.5,135.5-1.5-125.6.3-130.2-2.1-13.5-14.1-11.4-23.2s75.1-14.7,75.1-14.7Z" fill="#db3d78"/><g><path d="M275.68897,575.58646h-12.1c-1,0-1.9-.8-1.9-1.9v0c0-1,.8-1.9,1.9-1.9h12.1c1,0,1.9.8,1.9,1.9v0c0,1.1-.9,1.9-1.9,1.9Z" fill="#db3d78"/><path d="M371.68897,573.08646h-12.1c-1,0-1.9-.8-1.9-1.9v0c0-1,.8-1.9,1.9-1.9h12.1c1,0,1.9.8,1.9,1.9v0c0,1.1-.8,1.9-1.9,1.9Z" fill="#db3d78"/></g><path d="M463.28897,574.98646c0-.1,0-.2,0-.3c0-.3,0-.6.1-1l-15.8,9.6-34.2,5l.2,1.1l34.5-5l15.2-9.4Z" fill="#db3d78"/><path d="M470.68897,594.58646c.1-1.9-.1-3.5-.3-5l-28.5,9.3l28.8-4.3Z" fill="#db3d78"/><path d="M63.78897,599.78646c1,9,3.5,16,3.5,16c4.6,2.7,17.8,2.2,17.8,2.2v-11c-10.3.3-18.4-4.9-21.3-7.2Z" fill="#db3d78"/><path d="M449.38897,591.08646h-9.8c-.9,0-1.7-.8-1.7-1.7v0c0-.9.8-1.7,1.7-1.7h9.8c.9,0,1.7.8,1.7,1.7v0c0,1-.8,1.7-1.7,1.7Z" fill="#ad1015"/></g><g><path d="M173.18897,620.78646c0-21.7-16.8-39.4-37.5-39.4s-37.5,17.6-37.5,39.4c0,.4,0,5,0,11.2c1.2.3,1.9.5,1.9.5h54.9l18.1-.2c.1-6.4.1-11.1.1-11.5Z" fill="#000002"/><path d="M166.88898,620.78645c0,8.274754-3.287133,16.210596-9.138268,22.061731s-13.786977,9.138269-22.061732,9.138269-16.210601-3.28713-22.061738-9.138265-9.138272-13.786979-9.138272-22.061735s3.287135-16.210599,9.138272-22.061735s13.786981-9.138268,22.061738-9.138265s16.210597,3.287133,22.061732,9.138268s9.138268,13.786978,9.138268,22.061732Z" fill="#0e0f12"/><path d="M166.88898,620.78645c0,8.274754-3.287133,16.210596-9.138268,22.061731s-13.786977,9.138269-22.061732,9.138269-16.210601-3.28713-22.061738-9.138265-9.138272-13.786979-9.138272-22.061735s3.287135-16.210599,9.138272-22.061735s13.786981-9.138268,22.061738-9.138265s16.210597,3.287133,22.061732,9.138268s9.138268,13.786978,9.138268,22.061732Z"/><path d="M165.38898,620.78645c0,7.876929-3.129098,15.431241-8.698928,21.001071s-13.124142,8.698929-21.001072,8.698929-15.431245-3.129094-21.001078-8.698925-8.698932-13.124144-8.698932-21.001075s3.1291-15.431244,8.698932-21.001075s13.124147-8.698928,21.001078-8.698925s15.431241,3.129098,21.001071,8.698929s8.698929,13.124141,8.698929,21.001071Z" fill="#17191b"/><path d="M157.68898,620.78645c0,12.150264-9.849736,22-22,22s-22-9.849736-22-22s9.849736-22,22-22s22,9.849736,22,22Z" fill="#565f65"/><path d="M155.58898,620.78645c0,10.990467-8.909533,19.9-19.9,19.9s-19.9-8.909533-19.9-19.9s8.909533-19.9,19.9-19.9s19.9,8.909533,19.9,19.9Z" fill="#898a8e"/><g><path d="M141.48897,601.68646c-1.8-.6-3.8-.9-5.8-.9-.9,0-1.8.1-2.7.2l2.7,19.8l5.8-19.1Z" fill="#d1d2d1"/><path d="M153.28897,611.38646c-1.4-2.6-3.3-4.8-5.6-6.5l-12,15.9l17.6-9.4Z" fill="#d1d2d1"/><path d="M154.68897,626.58646c.6-1.8.9-3.8.9-5.8c0-.9-.1-1.8-.2-2.7l-19.8,2.7l19.1,5.8Z" fill="#d1d2d1"/><path d="M144.98897,638.38646c2.6-1.4,4.8-3.3,6.5-5.6l-15.9-12l9.4,17.6Z" fill="#d1d2d1"/><path d="M129.78897,639.88646c1.8.6,3.8.9,5.8.9.9,0,1.8-.1,2.7-.2l-2.7-19.8-5.8,19.1Z" fill="#d1d2d1"/><path d="M118.08897,630.18646c1.4,2.6,3.3,4.8,5.6,6.5l12-15.9-17.6,9.4Z" fill="#d1d2d1"/><path d="M116.58897,614.98646c-.6,1.8-.9,3.8-.9,5.8c0,.9.1,1.8.2,2.7l19.8-2.7-19.1-5.8Z" fill="#d1d2d1"/><path d="M126.28897,603.18646c-2.6,1.4-4.8,3.3-6.5,5.6l15.9,12-9.4-17.6Z" fill="#d1d2d1"/></g><path d="M141.68898,620.78645c0,3.313708-2.686292,6-6,6s-6-2.686292-6-6s2.686292-6,6-6s6,2.686292,6,6Z" fill="#565f65"/><path d="M138.48898,620.78645c0,1.546397-1.253603,2.8-2.8,2.8s-2.8-1.253603-2.8-2.8s1.253603-2.8,2.8-2.8s2.8,1.253603,2.8,2.8Z" fill="#9aa7b0"/></g><g><path d="M394.98897,581.38646c-20.7,0-37.5,17.6-37.5,39.4c0,.3,0,4,0,9.3h2.6l67.8-3.5l4.6-.5c0-3,0-5,0-5.2c0-21.8-16.8-39.5-37.5-39.5Z" fill="#000002"/><path d="M426.18896,620.78645c0,8.274754-3.287133,16.210596-9.138268,22.061731s-13.786977,9.138269-22.061732,9.138269-16.210597-3.287133-22.061732-9.138268-9.138268-13.786978-9.138268-22.061732s3.287133-16.210596,9.138268-22.061731s13.786977-9.138269,22.061732-9.138269s16.210597,3.287133,22.061732,9.138268s9.138268,13.786978,9.138268,22.061732Z" fill="#0e0f12"/><path d="M426.18896,620.78645c0,8.274754-3.287133,16.210596-9.138268,22.061731s-13.786977,9.138269-22.061732,9.138269-16.210597-3.287133-22.061732-9.138268-9.138268-13.786978-9.138268-22.061732s3.287133-16.210596,9.138268-22.061731s13.786977-9.138269,22.061732-9.138269s16.210597,3.287133,22.061732,9.138268s9.138268,13.786978,9.138268,22.061732Z"/><path d="M424.68896,620.78645c0,7.876929-3.129098,15.431241-8.698928,21.001071s-13.124142,8.698929-21.001072,8.698929-15.431241-3.129098-21.001071-8.698929-8.698929-13.124141-8.698929-21.001071s3.129098-15.431241,8.698928-21.001071s13.124142-8.698929,21.001072-8.698929s15.431241,3.129098,21.001071,8.698929s8.698929,13.124141,8.698929,21.001071Z" fill="#17191b"/><path d="M416.98896,620.78645c0,12.150264-9.849736,22-22,22s-22-9.849736-22-22s9.849736-22,22-22s22,9.849736,22,22Z" fill="#565f65"/><path d="M414.88896,620.78645c0,10.990467-8.909533,19.9-19.9,19.9s-19.9-8.909533-19.9-19.9s8.909533-19.9,19.9-19.9s19.9,8.909533,19.9,19.9Z" fill="#898a8e"/><g><path d="M400.78897,601.68646c-1.8-.6-3.8-.9-5.8-.9-.9,0-1.8.1-2.7.2l2.7,19.8l5.8-19.1Z" fill="#d1d2d1"/><path d="M412.58897,611.38646c-1.4-2.6-3.3-4.8-5.6-6.5l-12,15.9l17.6-9.4Z" fill="#d1d2d1"/><path d="M414.08897,626.58646c.6-1.8.9-3.8.9-5.8c0-.9-.1-1.8-.2-2.7l-19.8,2.7l19.1,5.8Z" fill="#d1d2d1"/><path d="M404.38897,638.38646c2.6-1.4,4.8-3.3,6.5-5.6l-15.9-12l9.4,17.6Z" fill="#d1d2d1"/><path d="M389.18897,639.88646c1.8.6,3.8.9,5.8.9.9,0,1.8-.1,2.7-.2l-2.7-19.8-5.8,19.1Z" fill="#d1d2d1"/><path d="M377.38897,630.18646c1.4,2.6,3.3,4.8,5.6,6.5l12-15.9-17.6,9.4Z" fill="#d1d2d1"/><path d="M375.88897,614.98646c-.6,1.8-.9,3.8-.9,5.8c0,.9.1,1.8.2,2.7l19.8-2.7-19.1-5.8Z" fill="#d1d2d1"/><path d="M385.58897,603.18646c-2.6,1.4-4.8,3.3-6.5,5.6l15.9,12-9.4-17.6Z" fill="#d1d2d1"/></g><path d="M400.98896,620.78645c0,3.313708-2.686292,6-6,6s-6-2.686292-6-6s2.686292-6,6-6s6,2.686292,6,6Z" fill="#565f65"/><path d="M397.78896,620.78645c0,1.546397-1.253603,2.8-2.8,2.8s-2.8-1.253603-2.8-2.8s1.253603-2.8,2.8-2.8s2.8,1.253603,2.8,2.8Z" fill="#9aa7b0"/></g><g><path d="M228.28897,570.18646c-26.4,0-40.1-1.6-43.7-2.1h-.2c-2.9-.6-3.8-4.2-1.6-6.2v0c6.2-5.3,28.8-23.3,58.6-30.4l.3-.1h.3c5.9-.3,11.6-.7,17.1-1c14.2-.9,27.7-1.7,40.6-1.7c27.6,0,49,3.7,71.7,12.5l2.3.9v21.1h-3.5c-.4,0-11.8.1-82.8,4.8-21.5,1.4-41.4,2.2-59.1,2.2c0,0,0,0,0,0Z" fill="#17191b"/><path d="M287.08897,564.48646c72.4-4.8,83-4.8,83-4.8v-15.1c-25.3-9.8-47.3-12.3-70.4-12.3-12.8,0-26.2.8-40.4,1.7-5.5.3-11.3.7-17.2,1-28.7,6.8-50.4,23.9-57.1,29.6c4.9.6,35.9,4.3,102.1-.1Z" fill="#73d0f2"/><g><path d="M216.88897,566.48646l31.9-31.9c-2.2.1-4.4.2-6.7.4-.2,0-.3.1-.5.1l-31.3,31.3c2.1,0,4.3.1,6.6.1Z" fill="#b7e4f6"/><path d="M259.28897,533.88646c-1.2.1-2.5.2-3.8.2l-32.4,32.4c2.1,0,4.4,0,6.7,0l32.9-32.9c-1.2.2-2.3.3-3.4.3Z" fill="#b7e4f6"/><path d="M276.38897,532.98646c-2.3.1-4.7.2-7.1.4l-33.2,33.2c2.2,0,4.5-.1,6.8-.1l33.5-33.5Z" fill="#b7e4f6"/><path d="M288.08897,564.38646c2.5-.2,4.8-.3,7.2-.5l30.3-30.3c-2-.2-4.1-.4-6.1-.6l-31.4,31.4Z" fill="#b7e4f6"/><path d="M336.88897,535.18646c-1.9-.3-3.9-.6-5.8-.9l-29.2,29.2c2.5-.2,4.9-.3,7.1-.5l27.9-27.8Z" fill="#b7e4f6"/><path d="M347.68897,537.48646c-1.8-.4-3.6-.9-5.5-1.2l-26.4,26.4c2.5-.2,4.9-.3,7.1-.4l24.8-24.8Z" fill="#b7e4f6"/></g><path d="M355.58897,537.78645l-1.20001,24h4.80002v-22.9l-3.60001-1.1Z" fill="#17191b"/><path d="M286.98897,529.78646l-7.6,36.5c0,0,15.3-1.1,15.1-1.7-.2-.7,2.1-34.8,2.1-34.8h-9.6Z" fill="#17191b"/></g><path d="M194.68897,556.18646c-3.1.7-8.8,2-10.5,2.7c0,0-1.5,7.4,2.6,9.9c2.6,1.6,6,2.2,8.1,2.5c1.1.1,2-.7,2-1.8v-11.6c0-1.1-1.1-2-2.2-1.7Z" fill="#db3d78"/></g><g><path d="M1063.68897,557.28646c0,0,25.1-24.1,61.4-32.6c62.4-3.2,95.6-14.5,161.1,24.8l54.3,2.6c4.8-.4,8.9,3.6,8.6,8.5-.4,6.2-1.4,11.8-1.5,14.2-.3,4.3,8,7.5,7.4,20.6s-8.4,27.7-8.4,27.7l-34.4,3.5-67.8,3.5-205.1,2.5h-66.8c0,0-21.2-5.3-22.8-11.4v-5l1.9-.4c0,0-4.2-11.4-3.9-23.8s1.9-15.6,1.9-15.6s39.3-17.7,114.1-19.1Z" fill="#a51e22"/><g><path d="M955.78897,580.78646c.1-.7,7.2-4.2,10.2-3.6c3,.5,9.8,12.9,9.7,12.6s-19.2,1.4-19.2,1.4-1.5-5.4-.7-10.4Z" fill="#d1d2d1"/><path d="M975.68897,589.68646c.1.3-6.7-12.1-9.7-12.6-1-.2-2.4.1-3.8.5c2.2,4,4,8.2,5.5,12.6c4.2-.3,7.9-.6,8-.5Z" fill="#efc41a"/></g><path d="M947.68897,592.08646c0,1.7,0,3.3.1,4.9c2.4,1.3,4.4,1.9,4.4,1.9v-18.7l-3.4-.8c-.4,2.3-.9,6.2-1.1,12.7Z" fill="#898a8e"/><g><path d="M1053.78892,632.28645l190.6001-2.29999l19-1v-5.29999h-209.6001v8.59998Z" fill="#851619"/><g><path d="M1164.48897,624.78646c-2.6-24.2,6.2-60.1,6.3-60.4l1,.3c-.1.4-8.8,36.1-6.2,60l-1.1.1Z" fill="#851619"/></g><g><path d="M1060.38897,624.78646c-2.6-24.2,6.2-60.1,6.3-60.4l1,.3c-.1.4-8.8,36.1-6.2,60l-1.1.1Z" fill="#851619"/></g><g><path d="M1263.88902,588.18647h-1.1001v-17.90002l-5.8999-7.9.79993-.6l6.20007,8.20001v18.20001Z" fill="#851619"/></g><path d="M1161.78897,577.58646c0,0-61.8.6-77.5,10.8-5.8,3.8,1.8,28.6,8.5,30.7s135.5-1.5,135.5-1.5-125.6.3-130.2-2.1-13.5-14.1-11.4-23.2c2.2-8.9,75.1-14.7,75.1-14.7Z" fill="#851619"/><g><path d="M1159.88897,575.58646h-12.1c-1,0-1.9-.8-1.9-1.9v0c0-1,.8-1.9,1.9-1.9h12.1c1,0,1.9.8,1.9,1.9v0c0,1.1-.8,1.9-1.9,1.9Z" fill="#851619"/><path d="M1255.98897,573.08646h-12.1c-1,0-1.9-.8-1.9-1.9v0c0-1,.8-1.9,1.9-1.9h12.1c1,0,1.9.8,1.9,1.9v0c0,1.1-.9,1.9-1.9,1.9Z" fill="#851619"/></g><path d="M1347.48897,574.98646c0-.1,0-.2,0-.3c0-.3,0-.6.1-1l-15.8,9.6-34.2,5l.2,1.1l34.5-5l15.2-9.4Z" fill="#851619"/><path d="M1354.88897,594.58646c.1-1.9-.1-3.5-.3-5l-28.5,9.3l28.8-4.3Z" fill="#851619"/><path d="M947.98897,599.78646c1,9,3.5,16,3.5,16c4.6,2.7,17.8,2.2,17.8,2.2v-11c-10.3.3-18.3-4.9-21.3-7.2Z" fill="#851619"/><path d="M1333.58897,591.08646h-9.8c-.9,0-1.7-.8-1.7-1.7v0c0-.9.8-1.7,1.7-1.7h9.8c.9,0,1.7.8,1.7,1.7v0c0,1-.7,1.7-1.7,1.7Z" fill="#ad1015"/></g><g><path d="M1057.38897,620.78646c0-21.7-16.8-39.4-37.5-39.4s-37.5,17.6-37.5,39.4c0,.4,0,5,0,11.2c1.2.3,1.9.5,1.9.5h54.9l18.1-.2c.1-6.4.1-11.1.1-11.5Z" fill="#000002"/><path d="M1051.08902,620.78645c0,8.274754-3.287133,16.210597-9.138268,22.061732s-13.786978,9.138268-22.061732,9.138268-16.210597-3.287133-22.061732-9.138268-9.138268-13.786978-9.138268-22.061732s3.287133-16.210597,9.138268-22.061732s13.786978-9.138268,22.061732-9.138268s16.210597,3.287133,22.061732,9.138268s9.138268,13.786978,9.138268,22.061732Z" fill="#0e0f12"/><path d="M1051.08902,620.78645c0,8.274754-3.287133,16.210597-9.138268,22.061732s-13.786978,9.138268-22.061732,9.138268-16.210597-3.287133-22.061732-9.138268-9.138268-13.786978-9.138268-22.061732s3.287133-16.210597,9.138268-22.061732s13.786978-9.138268,22.061732-9.138268s16.210597,3.287133,22.061732,9.138268s9.138268,13.786978,9.138268,22.061732Z"/><path d="M1049.58902,620.78645c0,7.876929-3.129098,15.431241-8.698928,21.001071s-13.124142,8.698929-21.001072,8.698929-15.431241-3.129098-21.001071-8.698929-8.698929-13.124141-8.698929-21.001071s3.129098-15.431241,8.698928-21.001071s13.124142-8.698929,21.001072-8.698929s15.431241,3.129098,21.001071,8.698929s8.698929,13.124141,8.698929,21.001071Z" fill="#17191b"/><path d="M1041.88902,620.78645c0,12.150264-9.849736,22-22,22s-22-9.849736-22-22s9.849736-22,22-22s22,9.849736,22,22Z" fill="#565f65"/><path d="M1039.78902,620.78645c0,10.990467-8.909533,19.9-19.9,19.9s-19.9-8.909533-19.9-19.9s8.909533-19.9,19.9-19.9s19.9,8.909533,19.9,19.9Z" fill="#898a8e"/><g><path d="M1025.68897,601.68646c-1.8-.6-3.8-.9-5.8-.9-.9,0-1.8.1-2.7.2l2.7,19.8l5.8-19.1Z" fill="#d1d2d1"/><path d="M1037.48897,611.38646c-1.4-2.6-3.3-4.8-5.6-6.5l-12,15.9l17.6-9.4Z" fill="#d1d2d1"/><path d="M1038.98897,626.58646c.6-1.8.9-3.8.9-5.8c0-.9-.1-1.8-.2-2.7l-19.8,2.7l19.1,5.8Z" fill="#d1d2d1"/><path d="M1029.28897,638.38646c2.6-1.4,4.8-3.3,6.5-5.6l-15.9-12l9.4,17.6Z" fill="#d1d2d1"/><path d="M1014.08897,639.88646c1.8.6,3.8.9,5.8.9.9,0,1.8-.1,2.7-.2l-2.7-19.8-5.8,19.1Z" fill="#d1d2d1"/><path d="M1002.28897,630.18646c1.4,2.6,3.3,4.8,5.6,6.5l12-15.9-17.6,9.4Z" fill="#d1d2d1"/><path d="M1000.78897,614.98646c-.6,1.8-.9,3.8-.9,5.8c0,.9.1,1.8.2,2.7l19.8-2.7-19.1-5.8Z" fill="#d1d2d1"/><path d="M1010.48897,603.18646c-2.6,1.4-4.8,3.3-6.5,5.6l15.9,12-9.4-17.6Z" fill="#d1d2d1"/></g><path d="M1025.88902,620.78645c0,3.313708-2.686292,6-6,6s-6-2.686292-6-6s2.686292-6,6-6s6,2.686292,6,6Z" fill="#565f65"/><path d="M1022.68902,620.78645c0,1.546397-1.253603,2.8-2.8,2.8s-2.8-1.253603-2.8-2.8s1.253603-2.8,2.8-2.8s2.8,1.253603,2.8,2.8Z" fill="#9aa7b0"/></g><g><path d="M1279.28897,581.38646c-20.7,0-37.5,17.6-37.5,39.4c0,.3,0,4,0,9.3h2.6l67.8-3.5l4.6-.5c0-3,0-5,0-5.2-.1-21.8-16.8-39.5-37.5-39.5Z" fill="#000002"/><path d="M1310.48892,620.78645c0,8.274754-3.287133,16.210597-9.138268,22.061732s-13.786978,9.138268-22.061732,9.138268-16.210597-3.287133-22.061732-9.138268-9.138268-13.786978-9.138268-22.061732s3.287133-16.210597,9.138268-22.061732s13.786978-9.138268,22.061732-9.138268s16.210597,3.287133,22.061732,9.138268s9.138268,13.786978,9.138268,22.061732Z" fill="#0e0f12"/><path d="M1310.48892,620.78645c0,8.274754-3.287133,16.210597-9.138268,22.061732s-13.786978,9.138268-22.061732,9.138268-16.210597-3.287133-22.061732-9.138268-9.138268-13.786978-9.138268-22.061732s3.287133-16.210597,9.138268-22.061732s13.786978-9.138268,22.061732-9.138268s16.210597,3.287133,22.061732,9.138268s9.138268,13.786978,9.138268,22.061732Z"/><path d="M1308.98892,620.78645c0,7.876929-3.129098,15.431241-8.698928,21.001071s-13.124142,8.698929-21.001072,8.698929-15.431241-3.129098-21.001071-8.698929-8.698929-13.124141-8.698929-21.001071s3.129098-15.431241,8.698928-21.001071s13.124142-8.698929,21.001072-8.698929s15.431241,3.129098,21.001071,8.698929s8.698929,13.124141,8.698929,21.001071Z" fill="#17191b"/><path d="M1301.28892,620.78645c0,12.150264-9.849736,22-22,22s-22-9.849736-22-22s9.849736-22,22-22s22,9.849736,22,22Z" fill="#565f65"/><path d="M1299.18892,620.78645c0,5.277808-2.096601,10.339451-5.828575,14.071425s-8.793617,5.828575-14.071425,5.828575-10.339451-2.096601-14.071425-5.828575-5.828575-8.793617-5.828575-14.071425s2.096601-10.339451,5.828575-14.071425s8.793617-5.828575,14.071425-5.828575s10.339451,2.096601,14.071425,5.828575s5.828575,8.793617,5.828575,14.071425Z" fill="#898a8e"/><g><path d="M1285.08897,601.68646c-1.8-.6-3.8-.9-5.8-.9-.9,0-1.8.1-2.7.2l2.7,19.8l5.8-19.1Z" fill="#d1d2d1"/><path d="M1296.88897,611.38646c-1.4-2.6-3.3-4.8-5.6-6.5l-12,15.9l17.6-9.4Z" fill="#d1d2d1"/><path d="M1298.28897,626.58646c.6-1.8.9-3.8.9-5.8c0-.9-.1-1.8-.2-2.7l-19.8,2.7l19.1,5.8Z" fill="#d1d2d1"/><path d="M1288.58897,638.38646c2.6-1.4,4.8-3.3,6.5-5.6l-15.9-12l9.4,17.6Z" fill="#d1d2d1"/><path d="M1273.38897,639.88646c1.8.6,3.8.9,5.8.9.9,0,1.8-.1,2.7-.2l-2.7-19.8-5.8,19.1Z" fill="#d1d2d1"/><path d="M1261.58897,630.18646c1.4,2.6,3.3,4.8,5.6,6.5l12-15.9-17.6,9.4Z" fill="#d1d2d1"/><path d="M1260.18897,614.98646c-.6,1.8-.9,3.8-.9,5.8c0,.9.1,1.8.2,2.7l19.8-2.7-19.1-5.8Z" fill="#d1d2d1"/><path d="M1269.88897,603.18646c-2.6,1.4-4.8,3.3-6.5,5.6l15.9,12-9.4-17.6Z" fill="#d1d2d1"/></g><path d="M1285.28892,620.78645c0,3.313708-2.686292,6-6,6s-6-2.686292-6-6s2.686292-6,6-6s6,2.686292,6,6Z" fill="#565f65"/><path d="M1282.08892,620.78645c0,1.546397-1.253603,2.8-2.8,2.8s-2.8-1.253603-2.8-2.8s1.253603-2.8,2.8-2.8s2.8,1.253603,2.8,2.8Z" fill="#9aa7b0"/></g><g><path d="M1112.48897,570.18646c-26.4,0-40.1-1.6-43.7-2.1h-.2c-2.9-.6-3.8-4.2-1.6-6.2v0c6.2-5.3,28.8-23.3,58.6-30.4l.3-.1h.3c5.9-.3,11.6-.7,17.1-1c14.2-.9,27.7-1.7,40.6-1.7c27.6,0,49,3.7,71.7,12.5l2.3.9v21.1h-3.5c-.4,0-11.8.1-82.8,4.8-21.5,1.4-41.3,2.2-59.1,2.2c0,0,0,0,0,0Z" fill="#17191b"/><path d="M1171.28897,564.48646c72.4-4.8,83-4.8,83-4.8v-15.1c-25.3-9.8-47.3-12.3-70.4-12.3-12.8,0-26.2.8-40.4,1.7-5.5.3-11.3.7-17.2,1-28.7,6.8-50.4,23.9-57.1,29.6c4.9.6,36,4.3,102.1-.1Z" fill="#73d0f2"/><g><path d="M1101.08897,566.48646l31.9-31.9c-2.2.1-4.4.2-6.7.4-.2,0-.3.1-.5.1l-31.3,31.3c2.1,0,4.3.1,6.6.1Z" fill="#b7e4f6"/><path d="M1143.48897,533.88646c-1.2.1-2.5.2-3.8.2l-32.4,32.4c2.1,0,4.4,0,6.7,0l32.9-32.9c-1.2.2-2.3.3-3.4.3Z" fill="#b7e4f6"/><path d="M1160.58897,532.98646c-2.3.1-4.7.2-7.1.4l-33.2,33.2c2.2,0,4.5-.1,6.8-.1l33.5-33.5Z" fill="#b7e4f6"/><path d="M1172.28897,564.38646c2.5-.2,4.8-.3,7.2-.5l30.3-30.3c-2-.2-4.1-.4-6.1-.6l-31.4,31.4Z" fill="#b7e4f6"/><path d="M1221.18897,535.18646c-1.9-.3-3.9-.6-5.8-.9l-29.2,29.2c2.5-.2,4.9-.3,7.1-.5l27.9-27.8Z" fill="#b7e4f6"/><path d="M1231.88897,537.48646c-1.8-.4-3.6-.9-5.5-1.2l-26.4,26.4c2.5-.2,4.9-.3,7.1-.4l24.8-24.8Z" fill="#b7e4f6"/></g><path d="M1239.78892,537.78645l-1.19995,24h4.80005v-22.9l-3.6001-1.1Z" fill="#17191b"/><path d="M1171.18897,529.78646l-7.6,36.5c0,0,15.3-1.1,15.1-1.7s2.1-34.8,2.1-34.8h-9.6Z" fill="#17191b"/></g><path d="M1078.98897,556.18646c-3.1.7-8.8,2-10.5,2.7c0,0-1.5,7.4,2.6,9.9c2.6,1.6,6,2.2,8.1,2.5c1.1.1,2-.7,2-1.8v-11.6c-.1-1.1-1.1-2-2.2-1.7Z" fill="#851619"/></g><g><path d="M179.48897,720.78646c0,0,25.1-24.1,61.4-32.6c62.4-3.2,95.6-14.5,161.1,24.8l54.3,2.6c4.8-.4,8.9,3.6,8.6,8.5-.4,6.2-1.4,11.8-1.5,14.2-.3,4.3,8,7.5,7.4,20.6s-8.4,27.7-8.4,27.7l-34.4,3.5-67.8,3.5-205.2,2.4h-66.8c0,0-21.2-5.3-22.8-11.4v-5l1.9-.4c0,0-4.2-11.4-3.9-23.8s1.9-15.6,1.9-15.6s39.3-17.6,114.2-19Z" fill="#ed5623"/><g><path d="M71.58897,744.18646c.1-.7,7.2-4.2,10.2-3.6c3,.5,9.8,12.9,9.7,12.6s-19.2,1.4-19.2,1.4-1.5-5.3-.7-10.4Z" fill="#d1d2d1"/><path d="M91.38897,753.18646c.1.3-6.7-12.1-9.7-12.6-1-.2-2.4.1-3.8.5c2.2,4,4,8.2,5.5,12.6c4.2-.4,8-.6,8-.5Z" fill="#efc41a"/></g><path d="M63.48897,755.58646c0,1.7,0,3.3.1,4.9c2.4,1.3,4.4,1.9,4.4,1.9v-18.7l-3.4-.8c-.5,2.3-1,6.2-1.1,12.7Z" fill="#898a8e"/><g><path d="M169.48896,795.78645l190.60001-2.29999l19-1v-5.29999h-209.60001v8.59998Z" fill="#ca4b27"/><g><path d="M280.28897,788.28646c-2.6-24.2,6.2-60.1,6.3-60.4l1,.3c-.1.4-8.8,36.1-6.2,60l-1.1.1Z" fill="#ca4b27"/></g><g><path d="M176.18897,788.28646c-2.6-24.2,6.2-60.1,6.3-60.4l1,.3c-.1.4-8.8,36.1-6.2,60l-1.1.1Z" fill="#ca4b27"/></g><g><path d="M379.68898,751.68647h-1.10001v-17.90002l-6-7.9.89999-.6l6.20002,8.20001v18.20001Z" fill="#ca4b27"/></g><path d="M277.58897,741.08646c0,0-61.8.6-77.5,10.8-5.8,3.8,1.8,28.6,8.5,30.7s135.5-1.5,135.5-1.5-125.6.3-130.2-2.1-13.5-14.1-11.4-23.2c2.2-9,75.1-14.7,75.1-14.7Z" fill="#ca4b27"/><g><path d="M275.68897,739.08646h-12.1c-1,0-1.9-.8-1.9-1.9v0c0-1,.8-1.9,1.9-1.9h12.1c1,0,1.9.8,1.9,1.9v0c0,1.1-.9,1.9-1.9,1.9Z" fill="#ca4b27"/><path d="M371.68897,736.58646h-12.1c-1,0-1.9-.8-1.9-1.9v0c0-1,.8-1.9,1.9-1.9h12.1c1,0,1.9.8,1.9,1.9v0c0,1.1-.8,1.9-1.9,1.9Z" fill="#ca4b27"/></g><path d="M463.28897,738.48646c0-.1,0-.2,0-.3c0-.3,0-.6.1-1l-15.8,9.6-34.2,5l.2,1.1l34.5-5l15.2-9.4Z" fill="#ca4b27"/><path d="M470.68897,758.08646c.1-1.9-.1-3.5-.3-5l-28.5,9.3l28.8-4.3Z" fill="#ca4b27"/><path d="M63.78897,763.28646c1,9,3.5,16,3.5,16c4.6,2.7,17.8,2.2,17.8,2.2v-11.1c-10.3.4-18.4-4.9-21.3-7.1Z" fill="#ca4b27"/><path d="M449.38897,754.58646h-9.8c-.9,0-1.7-.8-1.7-1.7v0c0-.9.8-1.7,1.7-1.7h9.8c.9,0,1.7.8,1.7,1.7v0c0,1-.8,1.7-1.7,1.7Z" fill="#ad1015"/></g><g><path d="M173.18897,784.28646c0-21.7-16.8-39.4-37.5-39.4s-37.5,17.6-37.5,39.4c0,.4,0,5,0,11.2c1.2.3,1.9.5,1.9.5h54.9l18.1-.2c.1-6.4.1-11.1.1-11.5Z" fill="#000002"/><path d="M166.88898,784.28645c0,8.274754-3.287133,16.210596-9.138268,22.061731s-13.786977,9.138269-22.061732,9.138269-16.210601-3.28713-22.061738-9.138265-9.138272-13.786979-9.138272-22.061735s3.287135-16.210599,9.138272-22.061735s13.786981-9.138268,22.061738-9.138265s16.210597,3.287133,22.061732,9.138268s9.138268,13.786978,9.138268,22.061732Z" fill="#0e0f12"/><path d="M166.88898,784.28645c0,8.274754-3.287133,16.210596-9.138268,22.061731s-13.786977,9.138269-22.061732,9.138269-16.210601-3.28713-22.061738-9.138265-9.138272-13.786979-9.138272-22.061735s3.287135-16.210599,9.138272-22.061735s13.786981-9.138268,22.061738-9.138265s16.210597,3.287133,22.061732,9.138268s9.138268,13.786978,9.138268,22.061732Z"/><path d="M165.38898,784.28645c0,7.876929-3.129098,15.431241-8.698928,21.001071s-13.124142,8.698929-21.001072,8.698929-15.431245-3.129094-21.001078-8.698925-8.698932-13.124144-8.698932-21.001075s3.1291-15.431244,8.698932-21.001075s13.124147-8.698928,21.001078-8.698925s15.431241,3.129098,21.001071,8.698929s8.698929,13.124141,8.698929,21.001071Z" fill="#17191b"/><path d="M157.68898,784.28645c0,12.150264-9.849736,22-22,22s-22-9.849736-22-22s9.849736-22,22-22s22,9.849736,22,22Z" fill="#565f65"/><path d="M155.58898,784.28645c0,10.990467-8.909533,19.9-19.9,19.9s-19.9-8.909533-19.9-19.9s8.909533-19.9,19.9-19.9s19.9,8.909533,19.9,19.9Z" fill="#898a8e"/><g><path d="M141.48897,765.18646c-1.8-.6-3.8-.9-5.8-.9-.9,0-1.8.1-2.7.2l2.7,19.8l5.8-19.1Z" fill="#d1d2d1"/><path d="M153.28897,774.88646c-1.4-2.6-3.3-4.8-5.6-6.5l-12,15.9l17.6-9.4Z" fill="#d1d2d1"/><path d="M154.68897,790.08646c.6-1.8.9-3.8.9-5.8c0-.9-.1-1.8-.2-2.7l-19.8,2.7l19.1,5.8Z" fill="#d1d2d1"/><path d="M144.98897,801.88646c2.6-1.4,4.8-3.3,6.5-5.6l-15.9-12l9.4,17.6Z" fill="#d1d2d1"/><path d="M129.78897,803.38646c1.8.6,3.8.9,5.8.9.9,0,1.8-.1,2.7-.2l-2.7-19.8-5.8,19.1Z" fill="#d1d2d1"/><path d="M118.08897,793.68646c1.4,2.6,3.3,4.8,5.6,6.5l12-15.9-17.6,9.4Z" fill="#d1d2d1"/><path d="M116.58897,778.48646c-.6,1.8-.9,3.8-.9,5.8c0,.9.1,1.8.2,2.7l19.8-2.7-19.1-5.8Z" fill="#d1d2d1"/><path d="M126.28897,766.68646c-2.6,1.4-4.8,3.3-6.5,5.6l15.9,12-9.4-17.6Z" fill="#d1d2d1"/></g><path d="M141.68898,784.28645c0,3.313708-2.686292,6-6,6s-6-2.686292-6-6s2.686292-6,6-6s6,2.686292,6,6Z" fill="#565f65"/><path d="M138.48898,784.28645c0,1.546397-1.253603,2.8-2.8,2.8s-2.8-1.253603-2.8-2.8s1.253603-2.8,2.8-2.8s2.8,1.253603,2.8,2.8Z" fill="#9aa7b0"/></g><g><path d="M394.98897,744.88646c-20.7,0-37.5,17.6-37.5,39.4c0,.3,0,4,0,9.3h2.6l67.8-3.5l4.6-.5c0-3,0-5,0-5.2c0-21.8-16.8-39.5-37.5-39.5Z" fill="#000002"/><path d="M426.18896,784.28645c0,8.274754-3.287133,16.210596-9.138268,22.061731s-13.786977,9.138269-22.061732,9.138269-16.210597-3.287133-22.061732-9.138268-9.138268-13.786978-9.138268-22.061732s3.287133-16.210596,9.138268-22.061731s13.786977-9.138269,22.061732-9.138269s16.210597,3.287133,22.061732,9.138268s9.138268,13.786978,9.138268,22.061732Z" fill="#0e0f12"/><path d="M426.18896,784.28645c0,8.274754-3.287133,16.210596-9.138268,22.061731s-13.786977,9.138269-22.061732,9.138269-16.210597-3.287133-22.061732-9.138268-9.138268-13.786978-9.138268-22.061732s3.287133-16.210596,9.138268-22.061731s13.786977-9.138269,22.061732-9.138269s16.210597,3.287133,22.061732,9.138268s9.138268,13.786978,9.138268,22.061732Z"/><path d="M424.68896,784.28645c0,7.876929-3.129098,15.431241-8.698928,21.001071s-13.124142,8.698929-21.001072,8.698929-15.431241-3.129098-21.001071-8.698929-8.698929-13.124141-8.698929-21.001071s3.129098-15.431241,8.698928-21.001071s13.124142-8.698929,21.001072-8.698929s15.431241,3.129098,21.001071,8.698929s8.698929,13.124141,8.698929,21.001071Z" fill="#17191b"/><path d="M416.98896,784.28645c0,12.150264-9.849736,22-22,22s-22-9.849736-22-22s9.849736-22,22-22s22,9.849736,22,22Z" fill="#565f65"/><path d="M414.88896,784.28645c0,10.990467-8.909533,19.9-19.9,19.9s-19.9-8.909533-19.9-19.9s8.909533-19.9,19.9-19.9s19.9,8.909533,19.9,19.9Z" fill="#898a8e"/><g><path d="M400.78897,765.18646c-1.8-.6-3.8-.9-5.8-.9-.9,0-1.8.1-2.7.2l2.7,19.8l5.8-19.1Z" fill="#d1d2d1"/><path d="M412.58897,774.88646c-1.4-2.6-3.3-4.8-5.6-6.5l-12,15.9l17.6-9.4Z" fill="#d1d2d1"/><path d="M414.08897,790.08646c.6-1.8.9-3.8.9-5.8c0-.9-.1-1.8-.2-2.7l-19.8,2.7l19.1,5.8Z" fill="#d1d2d1"/><path d="M404.38897,801.88646c2.6-1.4,4.8-3.3,6.5-5.6l-15.9-12l9.4,17.6Z" fill="#d1d2d1"/><path d="M389.18897,803.38646c1.8.6,3.8.9,5.8.9.9,0,1.8-.1,2.7-.2l-2.7-19.8-5.8,19.1Z" fill="#d1d2d1"/><path d="M377.38897,793.68646c1.4,2.6,3.3,4.8,5.6,6.5l12-15.9-17.6,9.4Z" fill="#d1d2d1"/><path d="M375.88897,778.48646c-.6,1.8-.9,3.8-.9,5.8c0,.9.1,1.8.2,2.7l19.8-2.7-19.1-5.8Z" fill="#d1d2d1"/><path d="M385.58897,766.68646c-2.6,1.4-4.8,3.3-6.5,5.6l15.9,12-9.4-17.6Z" fill="#d1d2d1"/></g><path d="M400.98896,784.28645c0,3.313708-2.686292,6-6,6s-6-2.686292-6-6s2.686292-6,6-6s6,2.686292,6,6Z" fill="#565f65"/><path d="M397.78896,784.28645c0,1.546397-1.253603,2.8-2.8,2.8s-2.8-1.253603-2.8-2.8s1.253603-2.8,2.8-2.8s2.8,1.253603,2.8,2.8Z" fill="#9aa7b0"/></g><g><path d="M228.28897,733.58646c-26.4,0-40.1-1.6-43.7-2.1h-.2c-2.9-.6-3.8-4.2-1.6-6.2v0c6.2-5.3,28.8-23.3,58.6-30.4l.3-.1h.3c5.9-.3,11.6-.7,17.1-1c14.2-.9,27.7-1.7,40.6-1.7c27.6,0,49,3.7,71.7,12.5l2.3.9v21.1h-3.5c-.4,0-11.8.1-82.8,4.8-21.5,1.5-41.4,2.2-59.1,2.2c0,0,0,0,0,0Z" fill="#17191b"/><path d="M287.08897,727.98646c72.4-4.8,83-4.8,83-4.8v-15.2c-25.3-9.8-47.3-12.3-70.4-12.3-12.8,0-26.2.8-40.4,1.7-5.5.3-11.3.7-17.2,1-28.7,6.8-50.4,23.9-57.1,29.6c4.9.7,35.9,4.3,102.1,0Z" fill="#73d0f2"/><g><path d="M216.88897,729.98646l31.9-31.9c-2.2.1-4.4.2-6.7.4-.2,0-.3.1-.5.1l-31.3,31.3c2.1,0,4.3,0,6.6.1Z" fill="#b7e4f6"/><path d="M259.28897,697.38646c-1.2.1-2.5.2-3.8.2l-32.4,32.4c2.1,0,4.4,0,6.7,0l32.9-32.9c-1.2.2-2.3.3-3.4.3Z" fill="#b7e4f6"/><path d="M276.38897,696.48646c-2.3.1-4.7.2-7.1.4l-33.2,33.2c2.2,0,4.5-.1,6.8-.1l33.5-33.5Z" fill="#b7e4f6"/><path d="M288.08897,727.88646c2.5-.2,4.8-.3,7.2-.5l30.3-30.3c-2-.2-4.1-.4-6.1-.6l-31.4,31.4Z" fill="#b7e4f6"/><path d="M336.88897,698.68646c-1.9-.3-3.9-.6-5.8-.9l-29.1,29.2c2.5-.2,4.9-.3,7.1-.5l27.8-27.8Z" fill="#b7e4f6"/><path d="M347.68897,700.98646c-1.8-.4-3.6-.9-5.5-1.2l-26.4,26.4c2.5-.2,4.9-.3,7.1-.4l24.8-24.8Z" fill="#b7e4f6"/></g><path d="M355.58897,701.28645l-1.20001,24h4.80002v-23l-3.60001-1Z" fill="#17191b"/><path d="M286.98897,693.28646l-7.6,36.5c0,0,15.3-1.1,15.1-1.7-.2-.7,2.1-34.8,2.1-34.8h-9.6Z" fill="#17191b"/></g><path d="M194.68897,719.68646c-3.1.7-8.8,2-10.5,2.7c0,0-1.5,7.4,2.6,9.9c2.6,1.6,6,2.2,8.1,2.5c1.1.1,2-.7,2-1.8v-11.6c0-1.2-1.1-2-2.2-1.7Z" fill="#ca4b27"/></g><g><path d="M618.28897,557.28646c0,0,25.1-24.1,61.4-32.6c62.4-3.2,95.6-14.5,161.1,24.8l54.3,2.6c4.8-.4,8.9,3.6,8.6,8.5-.4,6.2-1.4,11.8-1.5,14.2-.3,4.3,8,7.5,7.4,20.6s-8.4,27.7-8.4,27.7l-34.4,3.5-67.8,3.5-205.1,2.5h-66.8c0,0-21.2-5.3-22.8-11.4v-5l1.9-.4c0,0-4.2-11.4-3.9-23.8s1.9-15.6,1.9-15.6s39.2-17.7,114.1-19.1Z" fill="#3fb6e9"/><g><path d="M510.38897,580.78646c.1-.7,7.2-4.2,10.2-3.6c3,.5,9.8,12.9,9.7,12.6s-19.2,1.4-19.2,1.4-1.5-5.4-.7-10.4Z" fill="#d1d2d1"/><path d="M530.28897,589.68646c.1.3-6.7-12.1-9.7-12.6-1-.2-2.4.1-3.8.5c2.2,4,4,8.2,5.5,12.6c4.2-.3,7.9-.6,8-.5Z" fill="#efc41a"/></g><path d="M502.28897,592.08646c0,1.7,0,3.3.1,4.9c2.4,1.3,4.4,1.9,4.4,1.9v-18.7l-3.4-.8c-.4,2.3-1,6.2-1.1,12.7Z" fill="#898a8e"/><g><path d="M608.38896,632.28645l190.60003-2.29999l18.89997-1v-5.29999h-209.5v8.59998Z" fill="#139cca"/><g><path d="M719.08897,624.78646c-2.6-24.2,6.2-60.1,6.3-60.4l1,.3c-.1.4-8.8,36.1-6.2,60l-1.1.1Z" fill="#139cca"/></g><g><path d="M614.98897,624.78646c-2.6-24.2,6.2-60.1,6.3-60.4l1,.3c-.1.4-8.8,36.1-6.2,60l-1.1.1Z" fill="#139cca"/></g><g><path d="M818.48899,588.18647h-1.10003v-17.90002l-5.89997-7.9.79999-.6l6.20001,8.20001v18.20001Z" fill="#139cca"/></g><path d="M716.38897,577.58646c0,0-61.8.6-77.5,10.8-5.8,3.8,1.8,28.6,8.5,30.7s135.5-1.5,135.5-1.5-125.6.3-130.2-2.1-13.5-14.1-11.4-23.2c2.2-8.9,75.1-14.7,75.1-14.7Z" fill="#139cca"/><g><path d="M714.48897,575.58646h-12.1c-1,0-1.9-.8-1.9-1.9v0c0-1,.8-1.9,1.9-1.9h12.1c1,0,1.9.8,1.9,1.9v0c0,1.1-.9,1.9-1.9,1.9Z" fill="#139cca"/><path d="M810.48897,573.08646h-12.1c-1,0-1.9-.8-1.9-1.9v0c0-1,.8-1.9,1.9-1.9h12.1c1,0,1.9.8,1.9,1.9v0c0,1.1-.8,1.9-1.9,1.9Z" fill="#139cca"/></g><path d="M902.08897,574.98646c0-.1,0-.2,0-.3c0-.3,0-.6.1-1l-15.8,9.6-34.2,5l.2,1.1l34.5-5l15.2-9.4Z" fill="#139cca"/><path d="M909.48897,594.58646c.1-1.9-.1-3.5-.3-5l-28.5,9.3l28.8-4.3Z" fill="#139cca"/><path d="M502.58897,599.78646c1,9,3.5,16,3.5,16c4.6,2.7,17.8,2.2,17.8,2.2v-11c-10.3.3-18.4-4.9-21.3-7.2Z" fill="#139cca"/><path d="M888.18897,591.08646h-9.8c-.9,0-1.7-.8-1.7-1.7v0c0-.9.8-1.7,1.7-1.7h9.8c.9,0,1.7.8,1.7,1.7v0c0,1-.7,1.7-1.7,1.7Z" fill="#ad1015"/></g><g><path d="M611.98897,620.78646c0-21.7-16.8-39.4-37.5-39.4s-37.5,17.6-37.5,39.4c0,.4,0,5,0,11.2c1.2.3,1.9.5,1.9.5h54.9l18.1-.2c.1-6.4.1-11.1.1-11.5Z" fill="#000002"/><path d="M605.68899,620.78645c0,8.274754-3.287133,16.210597-9.138268,22.061732s-13.786978,9.138268-22.061732,9.138268-16.210597-3.287133-22.061732-9.138268-9.138268-13.786978-9.138268-22.061732s3.287133-16.210597,9.138268-22.061732s13.786978-9.138268,22.061732-9.138268s16.210597,3.287133,22.061732,9.138268s9.138268,13.786978,9.138268,22.061732Z" fill="#0e0f12"/><path d="M605.68899,620.78645c0,8.274754-3.287133,16.210597-9.138268,22.061732s-13.786978,9.138268-22.061732,9.138268-16.210597-3.287133-22.061732-9.138268-9.138268-13.786978-9.138268-22.061732s3.287133-16.210597,9.138268-22.061732s13.786978-9.138268,22.061732-9.138268s16.210597,3.287133,22.061732,9.138268s9.138268,13.786978,9.138268,22.061732Z"/><path d="M604.18899,620.78645c0,7.876929-3.129098,15.431241-8.698928,21.001071s-13.124142,8.698929-21.001072,8.698929-15.431241-3.129098-21.001071-8.698929-8.698929-13.124141-8.698929-21.001071s3.129098-15.431241,8.698928-21.001071s13.124142-8.698929,21.001072-8.698929s15.431241,3.129098,21.001071,8.698929s8.698929,13.124141,8.698929,21.001071Z" fill="#17191b"/><path d="M596.48899,620.78645c0,12.150264-9.849736,22-22,22s-22-9.849736-22-22s9.849736-22,22-22s22,9.849736,22,22Z" fill="#565f65"/><path d="M594.38899,620.78645c0,10.990467-8.909533,19.9-19.9,19.9s-19.89999-8.909537-19.89999-19.9s8.909527-19.899994,19.89999-19.9s19.9,8.909533,19.9,19.9Z" fill="#898a8e"/><g><path d="M580.28897,601.68646c-1.8-.6-3.8-.9-5.8-.9-.9,0-1.8.1-2.7.2l2.7,19.8l5.8-19.1Z" fill="#d1d2d1"/><path d="M592.08897,611.38646c-1.4-2.6-3.3-4.8-5.6-6.5l-12,15.9l17.6-9.4Z" fill="#d1d2d1"/><path d="M593.58897,626.58646c.6-1.8.9-3.8.9-5.8c0-.9-.1-1.8-.2-2.7l-19.8,2.7l19.1,5.8Z" fill="#d1d2d1"/><path d="M583.88897,638.38646c2.6-1.4,4.8-3.3,6.5-5.6l-15.9-12l9.4,17.6Z" fill="#d1d2d1"/><path d="M568.68897,639.88646c1.8.6,3.8.9,5.8.9.9,0,1.8-.1,2.7-.2l-2.7-19.8-5.8,19.1Z" fill="#d1d2d1"/><path d="M556.88897,630.18646c1.4,2.6,3.3,4.8,5.6,6.5l12-15.9-17.6,9.4Z" fill="#d1d2d1"/><path d="M555.38897,614.98646c-.6,1.8-.9,3.8-.9,5.8c0,.9.1,1.8.2,2.7l19.8-2.7-19.1-5.8Z" fill="#d1d2d1"/><path d="M565.08897,603.18646c-2.6,1.4-4.8,3.3-6.5,5.6l15.9,12-9.4-17.6Z" fill="#d1d2d1"/></g><path d="M580.48899,620.78645c0,3.313708-2.686292,6-6,6s-6-2.686292-6-6s2.686292-6,6-6s6,2.686292,6,6Z" fill="#565f65"/><path d="M577.28899,620.78645c0,1.546397-1.253603,2.8-2.8,2.8s-2.8-1.253603-2.8-2.8s1.253603-2.8,2.8-2.8s2.8,1.253603,2.8,2.8Z" fill="#9aa7b0"/></g><g><path d="M833.78897,581.38646c-20.7,0-37.5,17.6-37.5,39.4c0,.3,0,4,0,9.3h2.6l67.8-3.5l4.6-.5c0-3,0-5,0-5.2c0-21.8-16.8-39.5-37.5-39.5Z" fill="#000002"/><path d="M864.98898,620.78645c0,8.274754-3.287133,16.210597-9.138268,22.061732s-13.786978,9.138268-22.061732,9.138268-16.210597-3.287133-22.061732-9.138268-9.138268-13.786978-9.138268-22.061732s3.287133-16.210597,9.138268-22.061732s13.786978-9.138268,22.061732-9.138268s16.210597,3.287133,22.061732,9.138268s9.138268,13.786978,9.138268,22.061732Z" fill="#0e0f12"/><path d="M864.98898,620.78645c0,8.274754-3.287133,16.210597-9.138268,22.061732s-13.786978,9.138268-22.061732,9.138268-16.210597-3.287133-22.061732-9.138268-9.138268-13.786978-9.138268-22.061732s3.287133-16.210597,9.138268-22.061732s13.786978-9.138268,22.061732-9.138268s16.210597,3.287133,22.061732,9.138268s9.138268,13.786978,9.138268,22.061732Z"/><path d="M863.48898,620.78645c0,7.876929-3.129098,15.431241-8.698928,21.001071s-13.124142,8.698929-21.001072,8.698929-15.431241-3.129098-21.001071-8.698929-8.698929-13.124141-8.698929-21.001071s3.129098-15.431241,8.698928-21.001071s13.124142-8.698929,21.001072-8.698929s15.431241,3.129098,21.001071,8.698929s8.698929,13.124141,8.698929,21.001071Z" fill="#17191b"/><path d="M855.78898,620.78645c0,12.150264-9.849736,22-22,22s-22-9.849736-22-22s9.849736-22,22-22s22,9.849736,22,22Z" fill="#565f65"/><path d="M853.68898,620.78645c0,10.990467-8.909533,19.9-19.9,19.9s-19.9-8.909533-19.9-19.9s8.909533-19.9,19.9-19.9s19.9,8.909533,19.9,19.9Z" fill="#898a8e"/><g><path d="M839.68897,601.68646c-1.8-.6-3.8-.9-5.8-.9-.9,0-1.8.1-2.7.2l2.7,19.8l5.8-19.1Z" fill="#d1d2d1"/><path d="M851.38897,611.38646c-1.4-2.6-3.3-4.8-5.6-6.5l-12,15.9l17.6-9.4Z" fill="#d1d2d1"/><path d="M852.88897,626.58646c.6-1.8.9-3.8.9-5.8c0-.9-.1-1.8-.2-2.7l-19.8,2.7l19.1,5.8Z" fill="#d1d2d1"/><path d="M843.18897,638.38646c2.6-1.4,4.8-3.3,6.5-5.6l-15.9-12l9.4,17.6Z" fill="#d1d2d1"/><path d="M827.98897,639.88646c1.8.6,3.8.9,5.8.9.9,0,1.8-.1,2.7-.2l-2.7-19.8-5.8,19.1Z" fill="#d1d2d1"/><path d="M816.18897,630.18646c1.4,2.6,3.3,4.8,5.6,6.5l12-15.9-17.6,9.4Z" fill="#d1d2d1"/><path d="M814.78897,614.98646c-.6,1.8-.9,3.8-.9,5.8c0,.9.1,1.8.2,2.7l19.8-2.7-19.1-5.8Z" fill="#d1d2d1"/><path d="M824.48897,603.18646c-2.6,1.4-4.8,3.3-6.5,5.6l15.9,12-9.4-17.6Z" fill="#d1d2d1"/></g><path d="M839.78898,620.78645c0,3.313708-2.686292,6-6,6s-6-2.686292-6-6s2.686292-6,6-6s6,2.686292,6,6Z" fill="#565f65"/><path d="M836.58898,620.78645c0,1.546397-1.253603,2.8-2.8,2.8s-2.8-1.253603-2.8-2.8s1.253603-2.8,2.8-2.8s2.8,1.253603,2.8,2.8Z" fill="#9aa7b0"/></g><g><path d="M667.08897,570.18646c-26.4,0-40.1-1.6-43.7-2.1h-.2c-2.9-.6-3.8-4.2-1.6-6.2v0c6.2-5.3,28.8-23.3,58.6-30.4l.3-.1h.3c5.9-.3,11.6-.7,17.1-1c14.2-.9,27.7-1.7,40.6-1.7c27.6,0,49,3.7,71.7,12.5l2.3.9v21.1h-3.5c-.4,0-11.8.1-82.8,4.8-21.5,1.4-41.4,2.2-59.1,2.2c0,0,0,0,0,0Z" fill="#17191b"/><path d="M725.88897,564.48646c72.4-4.8,83-4.8,83-4.8v-15.1c-25.3-9.8-47.3-12.3-70.4-12.3-12.8,0-26.2.8-40.4,1.7-5.5.3-11.3.7-17.2,1-28.7,6.8-50.4,23.9-57.1,29.6c4.9.6,35.9,4.3,102.1-.1Z" fill="#73d0f2"/><g><path d="M655.68897,566.48646l31.9-31.9c-2.2.1-4.4.2-6.7.4-.2,0-.3.1-.5.1l-31.3,31.3c2.1,0,4.3.1,6.6.1Z" fill="#b7e4f6"/><path d="M698.08897,533.88646c-1.2.1-2.5.2-3.8.2l-32.4,32.4c2.1,0,4.4,0,6.7,0l32.9-32.9c-1.2.2-2.3.3-3.4.3Z" fill="#b7e4f6"/><path d="M715.18897,532.98646c-2.3.1-4.7.2-7.1.4l-33.2,33.2c2.2,0,4.5-.1,6.8-.1l33.5-33.5Z" fill="#b7e4f6"/><path d="M726.88897,564.38646c2.5-.2,4.8-.3,7.2-.5l30.3-30.3c-2-.2-4.1-.4-6.1-.6l-31.4,31.4Z" fill="#b7e4f6"/><path d="M775.68897,535.18646c-1.9-.3-3.9-.6-5.8-.9l-29.2,29.2c2.5-.2,4.9-.3,7.1-.5l27.9-27.8Z" fill="#b7e4f6"/><path d="M786.48897,537.48646c-1.8-.4-3.6-.9-5.5-1.2l-26.4,26.4c2.5-.2,4.9-.3,7.1-.4l24.8-24.8Z" fill="#b7e4f6"/></g><path d="M794.38896,537.78645l-1.20001,24h4.80004v-22.9l-3.60003-1.1Z" fill="#17191b"/><path d="M725.78897,529.78646l-7.6,36.5c0,0,15.3-1.1,15.1-1.7-.2-.7,2.1-34.8,2.1-34.8h-9.6Z" fill="#17191b"/></g><path d="M633.58897,556.18646c-3.1.7-8.8,2-10.5,2.7c0,0-1.5,7.4,2.6,9.9c2.6,1.6,6,2.2,8.1,2.5c1.1.1,2-.7,2-1.8v-11.6c-.1-1.1-1.1-2-2.2-1.7Z" fill="#139cca"/></g><g transform="matrix(1.954524 0 0 2.313782-644.303365-737.029511)"><path d="M618.28897,720.78646c0,0,25.1-24.1,61.4-32.6c62.4-3.2,95.6-14.5,161.1,24.8l54.3,2.6c4.8-.4,8.9,3.6,8.6,8.5-.4,6.2-1.4,11.8-1.5,14.2-.3,4.3,8,7.5,7.4,20.6s-8.4,27.7-8.4,27.7l-34.4,3.5-67.8,3.5-205.2,2.4h-66.8c0,0-21.2-5.3-22.8-11.4v-5l1.9-.4c0,0-4.2-11.4-3.9-23.8s1.9-15.6,1.9-15.6s39.3-17.6,114.2-19Z" fill="#30302f"/><g><path d="M510.38897,744.18646c.1-.7,7.2-4.2,10.2-3.6c3,.5,9.8,12.9,9.7,12.6s-19.2,1.4-19.2,1.4-1.5-5.3-.7-10.4Z" fill="#d1d2d1"/><path d="M530.28897,753.18646c.1.3-6.7-12.1-9.7-12.6-1-.2-2.4.1-3.8.5c2.2,4,4,8.2,5.5,12.6c4.2-.4,7.9-.6,8-.5Z" fill="#efc41a"/></g><path d="M502.28897,755.58646c0,1.7,0,3.3.1,4.9c2.4,1.3,4.4,1.9,4.4,1.9v-18.7l-3.4-.8c-.4,2.3-1,6.2-1.1,12.7Z" fill="#898a8e"/><g><path d="M608.38896,795.78645l190.60003-2.29999l18.89997-1v-5.29999h-209.5v8.59998Z"/><g><path d="M719.08897,788.28646c-2.6-24.2,6.2-60.1,6.3-60.4l1,.3c-.1.4-8.8,36.1-6.2,60l-1.1.1Z"/></g><g><path d="M614.98897,788.28646c-2.6-24.2,6.2-60.1,6.3-60.4l1,.3c-.1.4-8.8,36.1-6.2,60l-1.1.1Z"/></g><g><path d="M818.48899,751.68647h-1.10003v-17.90002l-5.89997-7.9.79999-.6l6.20001,8.20001v18.20001Z"/></g><path d="M716.38897,741.08646c0,0-61.8.6-77.5,10.8-5.8,3.8,1.8,28.6,8.5,30.7s135.5-1.5,135.5-1.5-125.6.3-130.2-2.1-13.5-14.1-11.4-23.2c2.2-9,75.1-14.7,75.1-14.7Z"/><g><path d="M714.48897,739.08646h-12.1c-1,0-1.9-.8-1.9-1.9v0c0-1,.8-1.9,1.9-1.9h12.1c1,0,1.9.8,1.9,1.9v0c0,1.1-.9,1.9-1.9,1.9Z"/><path d="M810.48897,736.58646h-12.1c-1,0-1.9-.8-1.9-1.9v0c0-1,.8-1.9,1.9-1.9h12.1c1,0,1.9.8,1.9,1.9v0c0,1.1-.8,1.9-1.9,1.9Z"/></g><path d="M902.08897,738.48646c0-.1,0-.2,0-.3c0-.3,0-.6.1-1l-15.8,9.6-34.2,5l.2,1.1l34.5-5l15.2-9.4Z"/><path d="M909.48897,758.08646c.1-1.9-.1-3.5-.3-5l-28.5,9.3l28.8-4.3Z"/><path d="M502.58897,763.28646c1,9,3.5,16,3.5,16c4.6,2.7,17.8,2.2,17.8,2.2v-11.1c-10.3.4-18.4-4.9-21.3-7.1Z"/><path d="M888.18897,754.58646h-9.8c-.9,0-1.7-.8-1.7-1.7v0c0-.9.8-1.7,1.7-1.7h9.8c.9,0,1.7.8,1.7,1.7v0c0,1-.7,1.7-1.7,1.7Z" fill="#ad1015"/></g><g><path d="M611.98897,784.28646c0-21.7-16.8-39.4-37.5-39.4s-37.5,17.6-37.5,39.4c0,.4,0,5,0,11.2c1.2.3,1.9.5,1.9.5h54.9l18.1-.2c.1-6.4.1-11.1.1-11.5Z" fill="#000002"/><path d="M605.68899,784.28645c0,8.274754-3.287133,16.210597-9.138268,22.061732s-13.786978,9.138268-22.061732,9.138268-16.210597-3.287133-22.061732-9.138268-9.138268-13.786978-9.138268-22.061732s3.287133-16.210597,9.138268-22.061732s13.786978-9.138268,22.061732-9.138268s16.210597,3.287133,22.061732,9.138268s9.138268,13.786978,9.138268,22.061732Z" fill="#0e0f12"/><path d="M605.68899,784.28645c0,8.274754-3.287133,16.210597-9.138268,22.061732s-13.786978,9.138268-22.061732,9.138268-16.210597-3.287133-22.061732-9.138268-9.138268-13.786978-9.138268-22.061732s3.287133-16.210597,9.138268-22.061732s13.786978-9.138268,22.061732-9.138268s16.210597,3.287133,22.061732,9.138268s9.138268,13.786978,9.138268,22.061732Z"/><path d="M604.18899,784.28645c0,7.876929-3.129098,15.431241-8.698928,21.001071s-13.124142,8.698929-21.001072,8.698929-15.431241-3.129098-21.001071-8.698929-8.698929-13.124141-8.698929-21.001071s3.129098-15.431241,8.698928-21.001071s13.124142-8.698929,21.001072-8.698929s15.431241,3.129098,21.001071,8.698929s8.698929,13.124141,8.698929,21.001071Z" fill="#17191b"/><path d="M596.48899,784.28645c0,12.150264-9.849736,22-22,22s-22-9.849736-22-22s9.849736-22,22-22s22,9.849736,22,22Z" fill="#565f65"/><path d="M594.38899,784.28645c0,10.990467-8.909533,19.9-19.9,19.9s-19.89999-8.909537-19.89999-19.9s8.909527-19.899994,19.89999-19.9s19.9,8.909533,19.9,19.9Z" fill="#898a8e"/><g><path d="M580.28897,765.18646c-1.8-.6-3.8-.9-5.8-.9-.9,0-1.8.1-2.7.2l2.7,19.8l5.8-19.1Z" fill="#d1d2d1"/><path d="M592.08897,774.88646c-1.4-2.6-3.3-4.8-5.6-6.5l-12,15.9l17.6-9.4Z" fill="#d1d2d1"/><path d="M593.58897,790.08646c.6-1.8.9-3.8.9-5.8c0-.9-.1-1.8-.2-2.7l-19.8,2.7l19.1,5.8Z" fill="#d1d2d1"/><path d="M583.88897,801.88646c2.6-1.4,4.8-3.3,6.5-5.6l-15.9-12l9.4,17.6Z" fill="#d1d2d1"/><path d="M568.68897,803.38646c1.8.6,3.8.9,5.8.9.9,0,1.8-.1,2.7-.2l-2.7-19.8-5.8,19.1Z" fill="#d1d2d1"/><path d="M556.88897,793.68646c1.4,2.6,3.3,4.8,5.6,6.5l12-15.9-17.6,9.4Z" fill="#d1d2d1"/><path d="M555.38897,778.48646c-.6,1.8-.9,3.8-.9,5.8c0,.9.1,1.8.2,2.7l19.8-2.7-19.1-5.8Z" fill="#d1d2d1"/><path d="M565.08897,766.68646c-2.6,1.4-4.8,3.3-6.5,5.6l15.9,12-9.4-17.6Z" fill="#d1d2d1"/></g><path d="M580.48899,784.28645c0,3.313708-2.686292,6-6,6s-6-2.686292-6-6s2.686292-6,6-6s6,2.686292,6,6Z" fill="#565f65"/><path d="M577.28899,784.28645c0,1.546397-1.253603,2.8-2.8,2.8s-2.8-1.253603-2.8-2.8s1.253603-2.8,2.8-2.8s2.8,1.253603,2.8,2.8Z" fill="#9aa7b0"/></g><g><path d="M833.78897,744.88646c-20.7,0-37.5,17.6-37.5,39.4c0,.3,0,4,0,9.3h2.6l67.8-3.5l4.6-.5c0-3,0-5,0-5.2c0-21.8-16.8-39.5-37.5-39.5Z" fill="#000002"/><path d="M864.98898,784.28645c0,8.274754-3.287133,16.210597-9.138268,22.061732s-13.786978,9.138268-22.061732,9.138268-16.210597-3.287133-22.061732-9.138268-9.138268-13.786978-9.138268-22.061732s3.287133-16.210597,9.138268-22.061732s13.786978-9.138268,22.061732-9.138268s16.210597,3.287133,22.061732,9.138268s9.138268,13.786978,9.138268,22.061732Z" fill="#0e0f12"/><path d="M864.98898,784.28645c0,8.274754-3.287133,16.210597-9.138268,22.061732s-13.786978,9.138268-22.061732,9.138268-16.210597-3.287133-22.061732-9.138268-9.138268-13.786978-9.138268-22.061732s3.287133-16.210597,9.138268-22.061732s13.786978-9.138268,22.061732-9.138268s16.210597,3.287133,22.061732,9.138268s9.138268,13.786978,9.138268,22.061732Z"/><path d="M863.48898,784.28645c0,7.876929-3.129098,15.431241-8.698928,21.001071s-13.124142,8.698929-21.001072,8.698929-15.431241-3.129098-21.001071-8.698929-8.698929-13.124141-8.698929-21.001071s3.129098-15.431241,8.698928-21.001071s13.124142-8.698929,21.001072-8.698929s15.431241,3.129098,21.001071,8.698929s8.698929,13.124141,8.698929,21.001071Z" fill="#17191b"/><path d="M855.78898,784.28645c0,12.150264-9.849736,22-22,22s-22-9.849736-22-22s9.849736-22,22-22s22,9.849736,22,22Z" fill="#565f65"/><path d="M853.68898,784.28645c0,10.990467-8.909533,19.9-19.9,19.9s-19.9-8.909533-19.9-19.9s8.909533-19.9,19.9-19.9s19.9,8.909533,19.9,19.9Z" fill="#898a8e"/><g><path d="M839.68897,765.18646c-1.8-.6-3.8-.9-5.8-.9-.9,0-1.8.1-2.7.2l2.7,19.8l5.8-19.1Z" fill="#d1d2d1"/><path d="M851.38897,774.88646c-1.4-2.6-3.3-4.8-5.6-6.5l-12,15.9l17.6-9.4Z" fill="#d1d2d1"/><path d="M852.88897,790.08646c.6-1.8.9-3.8.9-5.8c0-.9-.1-1.8-.2-2.7l-19.8,2.7l19.1,5.8Z" fill="#d1d2d1"/><path d="M843.18897,801.88646c2.6-1.4,4.8-3.3,6.5-5.6l-15.9-12l9.4,17.6Z" fill="#d1d2d1"/><path d="M827.98897,803.38646c1.8.6,3.8.9,5.8.9.9,0,1.8-.1,2.7-.2l-2.7-19.8-5.8,19.1Z" fill="#d1d2d1"/><path d="M816.18897,793.68646c1.4,2.6,3.3,4.8,5.6,6.5l12-15.9-17.6,9.4Z" fill="#d1d2d1"/><path d="M814.78897,778.48646c-.6,1.8-.9,3.8-.9,5.8c0,.9.1,1.8.2,2.7l19.8-2.7-19.1-5.8Z" fill="#d1d2d1"/><path d="M824.48897,766.68646c-2.6,1.4-4.8,3.3-6.5,5.6l15.9,12-9.4-17.6Z" fill="#d1d2d1"/></g><path d="M839.78898,784.28645c0,3.313708-2.686292,6-6,6s-6-2.686292-6-6s2.686292-6,6-6s6,2.686292,6,6Z" fill="#565f65"/><path d="M836.58898,784.28645c0,1.546397-1.253603,2.8-2.8,2.8s-2.8-1.253603-2.8-2.8s1.253603-2.8,2.8-2.8s2.8,1.253603,2.8,2.8Z" fill="#9aa7b0"/></g><g><path d="M667.08897,733.58646c-26.4,0-40.1-1.6-43.7-2.1h-.2c-2.9-.6-3.8-4.2-1.6-6.2v0c6.2-5.3,28.8-23.3,58.6-30.4l.3-.1h.3c5.9-.3,11.6-.7,17.1-1c14.2-.9,27.7-1.7,40.6-1.7c27.6,0,49,3.7,71.7,12.5l2.3.9v21.1h-3.5c-.4,0-11.8.1-82.8,4.8-21.5,1.5-41.4,2.2-59.1,2.2c0,0,0,0,0,0Z" fill="#17191b"/><path d="M725.88897,727.98646c72.4-4.8,83-4.8,83-4.8v-15.2c-25.3-9.8-47.3-12.3-70.4-12.3-12.8,0-26.2.8-40.4,1.7-5.5.3-11.3.7-17.2,1-28.7,6.8-50.4,23.9-57.1,29.6c4.9.7,35.9,4.3,102.1,0Z" fill="#73d0f2"/><g><path d="M655.68897,729.98646l31.9-31.9c-2.2.1-4.4.2-6.7.4-.2,0-.3.1-.5.1l-31.3,31.3c2.1,0,4.3,0,6.6.1Z" fill="#b7e4f6"/><path d="M698.08897,697.38646c-1.2.1-2.5.2-3.8.2l-32.4,32.4c2.1,0,4.4,0,6.7,0l32.9-32.9c-1.2.2-2.3.3-3.4.3Z" fill="#b7e4f6"/><path d="M715.18897,696.48646c-2.3.1-4.7.2-7.1.4l-33.2,33.2c2.2,0,4.5-.1,6.8-.1l33.5-33.5Z" fill="#b7e4f6"/><path d="M726.88897,727.88646c2.5-.2,4.8-.3,7.2-.5l30.3-30.3c-2-.2-4.1-.4-6.1-.6l-31.4,31.4Z" fill="#b7e4f6"/><path d="M775.68897,698.68646c-1.9-.3-3.9-.6-5.8-.9l-29.1,29.2c2.5-.2,4.9-.3,7.1-.5l27.8-27.8Z" fill="#b7e4f6"/><path d="M786.48897,700.98646c-1.8-.4-3.6-.9-5.5-1.2l-26.4,26.4c2.5-.2,4.9-.3,7.1-.4l24.8-24.8Z" fill="#b7e4f6"/></g><path d="M794.38896,701.28645l-1.20001,24h4.80004v-23l-3.60003-1Z" fill="#17191b"/><path d="M725.78897,693.28646l-7.6,36.5c0,0,15.3-1.1,15.1-1.7-.2-.7,2.1-34.8,2.1-34.8h-9.6Z" fill="#17191b"/></g><path d="M633.58897,719.68646c-3.1.7-8.8,2-10.5,2.7c0,0-1.5,7.4,2.6,9.9c2.6,1.6,6,2.2,8.1,2.5c1.1.1,2-.7,2-1.8v-11.6c-.1-1.2-1.1-2-2.2-1.7Z"/></g><g><path d="M1063.68897,720.78646c0,0,25.1-24.1,61.4-32.6c62.4-3.2,95.6-14.5,161.1,24.8l54.3,2.6c4.8-.4,8.9,3.6,8.6,8.5-.4,6.2-1.4,11.8-1.5,14.2-.3,4.3,8,7.5,7.4,20.6s-8.4,27.7-8.4,27.7l-34.4,3.5-67.8,3.5-205.1,2.5h-66.8c0,0-21.2-5.3-22.8-11.4v-5l1.9-.4c0,0-4.2-11.4-3.9-23.8s1.9-15.6,1.9-15.6s39.3-17.7,114.1-19.1Z" fill="#354545"/><g><path d="M955.78897,744.18646c.1-.7,7.2-4.2,10.2-3.6c3,.5,9.8,12.9,9.7,12.6s-19.2,1.4-19.2,1.4-1.5-5.3-.7-10.4Z" fill="#d1d2d1"/><path d="M975.68897,753.18646c.1.3-6.7-12.1-9.7-12.6-1-.2-2.4.1-3.8.5c2.2,4,4,8.2,5.5,12.6c4.2-.4,7.9-.6,8-.5Z" fill="#efc41a"/></g><path d="M947.68897,755.58646c0,1.7,0,3.3.1,4.9c2.4,1.3,4.4,1.9,4.4,1.9v-18.7l-3.4-.8c-.4,2.3-.9,6.2-1.1,12.7Z" fill="#898a8e"/><g><path d="M1053.78892,795.78645l190.6001-2.29999l19-1v-5.29999h-209.6001v8.59998Z" fill="#253535"/><g><path d="M1164.48897,788.28646c-2.6-24.2,6.2-60.1,6.3-60.4l1,.3c-.1.4-8.8,36.1-6.2,60l-1.1.1Z" fill="#253535"/></g><g><path d="M1060.38897,788.28646c-2.6-24.2,6.2-60.1,6.3-60.4l1,.3c-.1.4-8.8,36.1-6.2,60l-1.1.1Z" fill="#253535"/></g><g><path d="M1263.88902,751.68647h-1.1001v-17.90002l-5.8999-7.9.79993-.6l6.20007,8.20001v18.20001Z" fill="#253535"/></g><path d="M1161.78897,741.08646c0,0-61.8.6-77.5,10.8-5.8,3.8,1.8,28.6,8.5,30.7s135.5-1.5,135.5-1.5-125.6.3-130.2-2.1-13.5-14.1-11.4-23.2c2.2-9,75.1-14.7,75.1-14.7Z" fill="#253535"/><g><path d="M1159.88897,739.08646h-12.1c-1,0-1.9-.8-1.9-1.9v0c0-1,.8-1.9,1.9-1.9h12.1c1,0,1.9.8,1.9,1.9v0c0,1.1-.8,1.9-1.9,1.9Z" fill="#253535"/><path d="M1255.98897,736.58646h-12.1c-1,0-1.9-.8-1.9-1.9v0c0-1,.8-1.9,1.9-1.9h12.1c1,0,1.9.8,1.9,1.9v0c0,1.1-.9,1.9-1.9,1.9Z" fill="#253535"/></g><path d="M1347.48897,738.48646c0-.1,0-.2,0-.3c0-.3,0-.6.1-1l-15.8,9.6-34.2,5l.2,1.1l34.5-5l15.2-9.4Z" fill="#253535"/><path d="M1354.88897,758.08646c.1-1.9-.1-3.5-.3-5l-28.5,9.3l28.8-4.3Z" fill="#253535"/><path d="M947.98897,763.28646c1,9,3.5,16,3.5,16c4.6,2.7,17.8,2.2,17.8,2.2v-11.1c-10.3.4-18.3-4.9-21.3-7.1Z" fill="#253535"/><path d="M1333.58897,754.58646h-9.8c-.9,0-1.7-.8-1.7-1.7v0c0-.9.8-1.7,1.7-1.7h9.8c.9,0,1.7.8,1.7,1.7v0c0,1-.7,1.7-1.7,1.7Z" fill="#ad1015"/></g><g><path d="M1057.38897,784.28646c0-21.7-16.8-39.4-37.5-39.4s-37.5,17.6-37.5,39.4c0,.4,0,5,0,11.2c1.2.3,1.9.5,1.9.5h54.9l18.1-.2c.1-6.4.1-11.1.1-11.5Z" fill="#000002"/><path d="M1051.08902,784.28645c0,8.274754-3.287133,16.210597-9.138268,22.061732s-13.786978,9.138268-22.061732,9.138268-16.210597-3.287133-22.061732-9.138268-9.138268-13.786978-9.138268-22.061732s3.287133-16.210597,9.138268-22.061732s13.786978-9.138268,22.061732-9.138268s16.210597,3.287133,22.061732,9.138268s9.138268,13.786978,9.138268,22.061732Z" fill="#0e0f12"/><path d="M1051.08902,784.28645c0,8.274754-3.287133,16.210597-9.138268,22.061732s-13.786978,9.138268-22.061732,9.138268-16.210597-3.287133-22.061732-9.138268-9.138268-13.786978-9.138268-22.061732s3.287133-16.210597,9.138268-22.061732s13.786978-9.138268,22.061732-9.138268s16.210597,3.287133,22.061732,9.138268s9.138268,13.786978,9.138268,22.061732Z"/><path d="M1049.58902,784.28645c0,7.876929-3.129098,15.431241-8.698928,21.001071s-13.124142,8.698929-21.001072,8.698929-15.431241-3.129098-21.001071-8.698929-8.698929-13.124141-8.698929-21.001071s3.129098-15.431241,8.698928-21.001071s13.124142-8.698929,21.001072-8.698929s15.431241,3.129098,21.001071,8.698929s8.698929,13.124141,8.698929,21.001071Z" fill="#17191b"/><path d="M1041.88902,784.28645c0,12.150264-9.849736,22-22,22s-22-9.849736-22-22s9.849736-22,22-22s22,9.849736,22,22Z" fill="#565f65"/><path d="M1039.78902,784.28645c0,10.990467-8.909533,19.9-19.9,19.9s-19.9-8.909533-19.9-19.9s8.909533-19.9,19.9-19.9s19.9,8.909533,19.9,19.9Z" fill="#898a8e"/><g><path d="M1025.68897,765.18646c-1.8-.6-3.8-.9-5.8-.9-.9,0-1.8.1-2.7.2l2.7,19.8l5.8-19.1Z" fill="#d1d2d1"/><path d="M1037.48897,774.88646c-1.4-2.6-3.3-4.8-5.6-6.5l-12,15.9l17.6-9.4Z" fill="#d1d2d1"/><path d="M1038.98897,790.08646c.6-1.8.9-3.8.9-5.8c0-.9-.1-1.8-.2-2.7l-19.8,2.7l19.1,5.8Z" fill="#d1d2d1"/><path d="M1029.28897,801.88646c2.6-1.4,4.8-3.3,6.5-5.6l-15.9-12l9.4,17.6Z" fill="#d1d2d1"/><path d="M1014.08897,803.38646c1.8.6,3.8.9,5.8.9.9,0,1.8-.1,2.7-.2l-2.7-19.8-5.8,19.1Z" fill="#d1d2d1"/><path d="M1002.28897,793.68646c1.4,2.6,3.3,4.8,5.6,6.5l12-15.9-17.6,9.4Z" fill="#d1d2d1"/><path d="M1000.78897,778.48646c-.6,1.8-.9,3.8-.9,5.8c0,.9.1,1.8.2,2.7l19.8-2.7-19.1-5.8Z" fill="#d1d2d1"/><path d="M1010.48897,766.68646c-2.6,1.4-4.8,3.3-6.5,5.6l15.9,12-9.4-17.6Z" fill="#d1d2d1"/></g><path d="M1025.88902,784.28645c0,3.313708-2.686292,6-6,6s-6-2.686292-6-6s2.686292-6,6-6s6,2.686292,6,6Z" fill="#565f65"/><path d="M1022.68902,784.28645c0,1.546397-1.253603,2.8-2.8,2.8s-2.8-1.253603-2.8-2.8s1.253603-2.8,2.8-2.8s2.8,1.253603,2.8,2.8Z" fill="#9aa7b0"/></g><g><path d="M1279.28897,744.88646c-20.7,0-37.5,17.6-37.5,39.4c0,.3,0,4,0,9.3h2.6l67.8-3.5l4.6-.5c0-3,0-5,0-5.2-.1-21.8-16.8-39.5-37.5-39.5Z" fill="#000002"/><path d="M1310.48892,784.28645c0,8.274754-3.287133,16.210597-9.138268,22.061732s-13.786978,9.138268-22.061732,9.138268-16.210597-3.287133-22.061732-9.138268-9.138268-13.786978-9.138268-22.061732s3.287133-16.210597,9.138268-22.061732s13.786978-9.138268,22.061732-9.138268s16.210597,3.287133,22.061732,9.138268s9.138268,13.786978,9.138268,22.061732Z" fill="#0e0f12"/><path d="M1310.48892,784.28645c0,8.274754-3.287133,16.210597-9.138268,22.061732s-13.786978,9.138268-22.061732,9.138268-16.210597-3.287133-22.061732-9.138268-9.138268-13.786978-9.138268-22.061732s3.287133-16.210597,9.138268-22.061732s13.786978-9.138268,22.061732-9.138268s16.210597,3.287133,22.061732,9.138268s9.138268,13.786978,9.138268,22.061732Z"/><path d="M1308.98892,784.28645c0,7.876929-3.129098,15.431241-8.698928,21.001071s-13.124142,8.698929-21.001072,8.698929-15.431241-3.129098-21.001071-8.698929-8.698929-13.124141-8.698929-21.001071s3.129098-15.431241,8.698928-21.001071s13.124142-8.698929,21.001072-8.698929s15.431241,3.129098,21.001071,8.698929s8.698929,13.124141,8.698929,21.001071Z" fill="#17191b"/><path d="M1301.28892,784.28645c0,12.150264-9.849736,22-22,22s-22-9.849736-22-22s9.849736-22,22-22s22,9.849736,22,22Z" fill="#565f65"/><path d="M1299.18892,784.28645c0,5.277808-2.096601,10.339451-5.828575,14.071425s-8.793617,5.828575-14.071425,5.828575-10.339451-2.096601-14.071425-5.828575-5.828575-8.793617-5.828575-14.071425s2.096601-10.339451,5.828575-14.071425s8.793617-5.828575,14.071425-5.828575s10.339451,2.096601,14.071425,5.828575s5.828575,8.793617,5.828575,14.071425Z" fill="#898a8e"/><g><path d="M1285.08897,765.18646c-1.8-.6-3.8-.9-5.8-.9-.9,0-1.8.1-2.7.2l2.7,19.8l5.8-19.1Z" fill="#d1d2d1"/><path d="M1296.88897,774.88646c-1.4-2.6-3.3-4.8-5.6-6.5l-12,15.9l17.6-9.4Z" fill="#d1d2d1"/><path d="M1298.28897,790.08646c.6-1.8.9-3.8.9-5.8c0-.9-.1-1.8-.2-2.7l-19.8,2.7l19.1,5.8Z" fill="#d1d2d1"/><path d="M1288.58897,801.88646c2.6-1.4,4.8-3.3,6.5-5.6l-15.9-12l9.4,17.6Z" fill="#d1d2d1"/><path d="M1273.38897,803.38646c1.8.6,3.8.9,5.8.9.9,0,1.8-.1,2.7-.2l-2.7-19.8-5.8,19.1Z" fill="#d1d2d1"/><path d="M1261.58897,793.68646c1.4,2.6,3.3,4.8,5.6,6.5l12-15.9-17.6,9.4Z" fill="#d1d2d1"/><path d="M1260.18897,778.48646c-.6,1.8-.9,3.8-.9,5.8c0,.9.1,1.8.2,2.7l19.8-2.7-19.1-5.8Z" fill="#d1d2d1"/><path d="M1269.88897,766.68646c-2.6,1.4-4.8,3.3-6.5,5.6l15.9,12-9.4-17.6Z" fill="#d1d2d1"/></g><path d="M1285.28892,784.28645c0,3.313708-2.686292,6-6,6s-6-2.686292-6-6s2.686292-6,6-6s6,2.686292,6,6Z" fill="#565f65"/><path d="M1282.08892,784.28645c0,1.546397-1.253603,2.8-2.8,2.8s-2.8-1.253603-2.8-2.8s1.253603-2.8,2.8-2.8s2.8,1.253603,2.8,2.8Z" fill="#9aa7b0"/></g><g><path d="M1112.48897,733.58646c-26.4,0-40.1-1.6-43.7-2.1h-.2c-2.9-.6-3.8-4.2-1.6-6.2v0c6.2-5.3,28.8-23.3,58.6-30.4l.3-.1h.3c5.9-.3,11.6-.7,17.1-1c14.2-.9,27.7-1.7,40.6-1.7c27.6,0,49,3.7,71.7,12.5l2.3.9v21.1h-3.5c-.4,0-11.8.1-82.8,4.8-21.5,1.5-41.3,2.2-59.1,2.2c0,0,0,0,0,0Z" fill="#17191b"/><path d="M1171.28897,727.98646c72.4-4.8,83-4.8,83-4.8v-15.2c-25.3-9.8-47.3-12.3-70.4-12.3-12.8,0-26.2.8-40.4,1.7-5.5.3-11.3.7-17.2,1-28.7,6.8-50.4,23.9-57.1,29.6c4.9.7,36,4.3,102.1,0Z" fill="#73d0f2"/><g><path d="M1101.08897,729.98646l31.9-31.9c-2.2.1-4.4.2-6.7.4-.2,0-.3.1-.5.1l-31.3,31.3c2.1,0,4.3,0,6.6.1Z" fill="#b7e4f6"/><path d="M1143.48897,697.38646c-1.2.1-2.5.2-3.8.2l-32.4,32.4c2.1,0,4.4,0,6.7,0l32.9-32.9c-1.2.2-2.3.3-3.4.3Z" fill="#b7e4f6"/><path d="M1160.58897,696.48646c-2.3.1-4.7.2-7.1.4l-33.2,33.2c2.2,0,4.5-.1,6.8-.1l33.5-33.5Z" fill="#b7e4f6"/><path d="M1172.28897,727.88646c2.5-.2,4.8-.3,7.2-.5l30.3-30.3c-2-.2-4.1-.4-6.1-.6l-31.4,31.4Z" fill="#b7e4f6"/><path d="M1221.18897,698.68646c-1.9-.3-3.9-.6-5.8-.9l-29.2,29.2c2.5-.2,4.9-.3,7.1-.5l27.9-27.8Z" fill="#b7e4f6"/><path d="M1231.88897,700.98646c-1.8-.4-3.6-.9-5.5-1.2l-26.4,26.4c2.5-.2,4.9-.3,7.1-.4l24.8-24.8Z" fill="#b7e4f6"/></g><path d="M1239.78892,701.28645l-1.19995,24h4.80005v-23l-3.6001-1Z" fill="#17191b"/><path d="M1171.18897,693.28646l-7.6,36.5c0,0,15.3-1.1,15.1-1.7-.2-.7,2.1-34.8,2.1-34.8h-9.6Z" fill="#17191b"/></g><path d="M1078.98897,719.68646c-3.1.7-8.8,2-10.5,2.7c0,0-1.5,7.4,2.6,9.9c2.6,1.6,6,2.2,8.1,2.5c1.1.1,2-.7,2-1.8v-11.6c-.1-1.2-1.1-2-2.2-1.7Z" fill="#253535"/></g><g transform="translate(167.724318 468.870718)"><path d="M487.88897,962.38646c0,0,57.1-55,139.8-74.3c142.2-7.4,217.8-33,367.1,56.4l123.6,5.9c11-.8,20.2,8.3,19.5,19.3-.9,14.1-3.1,27-3.5,32.3-.7,9.7,18.3,17,16.8,46.9s-19,63-19,63l-78.3,8.1-154.4,8.1-467.2,5.7h-152.3c0,0-48.3-12.1-52-25.9v-11.3l4.4-.8c0,0-9.5-25.9-8.8-54.1.7-28.3,4.4-35.6,4.4-35.6s89.5-40.5,259.9-43.7Z" fill="#ee2532"/><path d="M465.28898,1133.28645l434.20001-5.20001l43.19996-2.29999v-12.09998h-477.39997v19.59998Z" fill="#ca1529"/><g><path d="M473.58897,1107.08646c0-49.5-38.2-89.7-85.4-89.7s-85.4,40.2-85.4,89.7c0,.8,0,11.4,0,25.6c2.7.7,4.3,1.1,4.3,1.1h125.1l41.3-.5c.1-14.6.1-25.4.1-26.2Z" fill="#000002"/><path d="M459.28897,1107.08644c-.000006,39.267438-31.832552,71.099985-71.09999,71.09999s-71.099994-31.832548-71.1-71.09999s31.832554-71.1,71.1-71.1s71.09999,31.832558,71.09999,71.1Z" fill="#0e0f12"/><path d="M459.28897,1107.08644c-.000006,39.267438-31.832552,71.099985-71.09999,71.09999s-71.099994-31.832548-71.1-71.09999s31.832554-71.1,71.1-71.1s71.09999,31.832558,71.09999,71.1Z"/><path d="M455.78897,1107.08644c-.000006,37.334441-30.265549,67.599984-67.59999,67.59999s-67.599994-30.265545-67.6-67.59999s30.265551-67.6,67.6-67.6s67.59999,30.265555,67.59999,67.6Z" fill="#17191b"/><path d="M438.18898,1107.08644c0,27.614237-22.385763,50-50,50s-50-22.385763-50-50s22.385763-50,50-50s50,22.385763,50,50Z" fill="#565f65"/><path d="M433.58898,1107.08644c0,12.040829-4.783201,23.588496-13.297352,32.102648s-20.061819,13.297352-32.102648,13.297352-23.588501-4.783197-32.102654-13.297349-13.297356-20.061821-13.297356-32.102651s4.783198-23.588504,13.297352-32.102658s20.061826-13.297355,32.102658-13.297352s23.5885,4.783202,32.102651,13.297356s13.297352,20.061824,13.297349,32.102654Z" fill="#898a8e"/><g><path d="M401.38897,1063.58646c-4.2-1.3-8.6-2-13.3-2-2.1,0-4.2.2-6.2.4l6.2,45l13.3-43.4Z" fill="#d1d2d1"/><path d="M428.28897,1085.68646c-3.1-5.8-7.5-10.9-12.7-14.9l-27.4,36.2l40.1-21.3Z" fill="#d1d2d1"/><path d="M431.58897,1120.28646c1.3-4.2,2-8.6,2-13.3c0-2.1-.2-4.2-.4-6.2l-45,6.2l43.4,13.3Z" fill="#d1d2d1"/><path d="M409.48897,1147.18646c5.8-3.1,10.9-7.5,14.9-12.7l-36.2-27.4l21.3,40.1Z" fill="#d1d2d1"/><path d="M374.88897,1150.48646c4.2,1.3,8.6,2,13.3,2c2.1,0,4.2-.2,6.2-.4l-6.2-45-13.3,43.4Z" fill="#d1d2d1"/><path d="M348.08897,1128.38646c3.1,5.8,7.5,10.9,12.7,14.9l27.4-36.2-40.1,21.3Z" fill="#d1d2d1"/><path d="M344.68897,1093.78646c-1.3,4.2-2,8.6-2,13.3c0,2.1.2,4.2.4,6.2l45-6.2-43.4-13.3Z" fill="#d1d2d1"/><path d="M366.78897,1066.98646c-5.8,3.1-10.9,7.5-14.9,12.7l36.2,27.4-21.3-40.1Z" fill="#d1d2d1"/></g><path d="M401.88898,1107.08644c0,3.633466-1.443389,7.118115-4.012637,9.687363s-6.053897,4.012637-9.687363,4.012637-7.118115-1.443389-9.687363-4.012637-4.012637-6.053897-4.012637-9.687363s1.443389-7.118115,4.012637-9.687363s6.053897-4.012637,9.687363-4.012637s7.118115,1.443389,9.687363,4.012637s4.012637,6.053897,4.012637,9.687363Z" fill="#565f65"/><path d="M394.48898,1107.08644c0,3.479394-2.820606,6.3-6.3,6.3s-6.3-2.820606-6.3-6.3s2.820606-6.3,6.3-6.3s6.3,2.820606,6.3,6.3Z" fill="#9aa7b0"/></g><g><path d="M717.58897,1116.08646c-5.9-55.1,14.1-136.8,14.3-137.6l2.4.6c-.2.8-20,82.1-14.2,136.8l-2.5.2Z" fill="#ca1529"/></g><g><path d="M480.38897,1116.08646c-5.9-55.1,14.1-136.8,14.3-137.6l2.4.6c-.2.8-20,82.1-14.2,136.8l-2.5.2Z" fill="#ca1529"/></g><g><path d="M943.88896,1032.68647h-2.39997v-40.60003l-13.60003-18.09998l2-1.40002l14,18.70001v41.40002Z" fill="#ca1529"/></g><path d="M599.08897,991.68646c-60.1,0-91.4-3.6-99.5-4.7l-.5-.1c-6.6-1.3-8.8-9.7-3.7-14v0c14.2-12.2,65.7-53.1,133.4-69.3l.7-.2h.7c13.4-.7,26.5-1.5,39.1-2.2c32.4-1.9,63-3.8,92.5-3.8c62.9,0,111.7,8.5,163.3,28.4l5.2,2v48.1h-8.1c-1,0-26.8.2-188.5,10.9-48.9,3.2-94.2,4.9-134.6,4.9c0,0,0,0,0,0Z" fill="#17191b"/><path d="M732.98897,978.68646c164.8-10.9,189.1-10.9,189.1-10.9v-34.5c-57.7-22.3-107.7-27.9-160.4-27.9-29.2,0-59.7,1.8-92,3.8-12.6.8-25.6,1.5-39.1,2.2-65.3,15.5-114.7,54.4-130,67.5c11.1,1.6,81.8,9.8,232.4-.2Z" fill="#73d0f2"/><path d="M711.38897,1008.68646c0,0-140.7,1.4-176.6,24.7-13.3,8.7,4,65.1,19.4,69.9s308.7-3.4,308.7-3.4-286.1.7-296.6-4.8-30.7-32.2-25.9-52.8c4.9-20.6,171-33.6,171-33.6Z" fill="#ca1529"/><path d="M522.68897,959.78646c-7.1,1.6-19.9,4.6-24,6.3c0,0-3.3,16.8,5.9,22.5c5.9,3.6,13.6,5,18.5,5.6c2.4.3,4.5-1.6,4.5-4v-26.4c0-2.6-2.4-4.6-4.9-4Z" fill="#ca1529"/><g><path d="M707.08897,1004.18646h-27.6c-2.4,0-4.3-1.9-4.3-4.3v0c0-2.4,1.9-4.3,4.3-4.3h27.6c2.4,0,4.3,1.9,4.3,4.3v0c0,2.3-1.9,4.3-4.3,4.3Z" fill="#ca1529"/><path d="M925.88897,998.48646h-27.6c-2.4,0-4.3-1.9-4.3-4.3v0c0-2.4,1.9-4.3,4.3-4.3h27.6c2.4,0,4.3,1.9,4.3,4.3v0c0,2.3-1.9,4.3-4.3,4.3Z" fill="#ca1529"/></g><path d="M1134.38897,1002.68646c0-.2,0-.5,0-.7c0-.6.1-1.3.2-2.2l-36,21.9-78,11.3.3,2.4l78.5-11.4l35-21.3Z" fill="#ca1529"/><g><path d="M978.88897,1017.38646c-47.2,0-85.4,40.2-85.4,89.7c0,.7,0,9.2,0,21.1l6-.1l154.4-8.1l10.4-1.1c0-6.8,0-11.3,0-11.9c0-49.5-38.2-89.6-85.4-89.6Z" fill="#000002"/><path d="M1049.98896,1107.08644c-.000006,39.267442-31.832558,71.09999-71.1,71.09999s-71.099994-31.832548-71.1-71.09999s31.832554-71.1,71.1-71.1s71.1,31.832554,71.1,71.1Z" fill="#0e0f12"/><path d="M1049.98896,1107.08644c-.000006,39.267442-31.832558,71.09999-71.1,71.09999s-71.099994-31.832548-71.1-71.09999s31.832554-71.1,71.1-71.1s71.1,31.832554,71.1,71.1Z"/><path d="M1046.48896,1107.08644c-.000006,37.334445-30.265555,67.59999-67.6,67.59999s-67.599994-30.265545-67.6-67.59999s30.265551-67.6,67.6-67.6s67.6,30.265551,67.6,67.6Z" fill="#17191b"/><path d="M1028.88896,1107.08644c0,27.614237-22.385763,50-50,50s-50-22.385763-50-50s22.385763-50,50-50s50,22.385763,50,50Z" fill="#565f65"/><path d="M1024.28896,1107.08644c0,12.040829-4.783201,23.588496-13.297352,32.102648s-20.061819,13.297352-32.102648,13.297352-23.588496-4.783201-32.102648-13.297352-13.297352-20.061819-13.297352-32.102648s4.783197-23.588501,13.297349-32.102654s20.061821-13.297356,32.102651-13.297356s23.5885,4.783202,32.102651,13.297356s13.297352,20.061824,13.297349,32.102654Z" fill="#898a8e"/><g><path d="M992.18897,1063.58646c-4.2-1.3-8.6-2-13.3-2-2.1,0-4.2.2-6.2.4l6.2,45l13.3-43.4Z" fill="#d1d2d1"/><path d="M1018.98897,1085.68646c-3.1-5.8-7.5-10.9-12.7-14.9l-27.4,36.2l40.1-21.3Z" fill="#d1d2d1"/><path d="M1022.38897,1120.28646c1.3-4.2,2-8.6,2-13.3c0-2.1-.2-4.2-.4-6.2l-45,6.2l43.4,13.3Z" fill="#d1d2d1"/><path d="M1000.28897,1147.18646c5.8-3.1,10.9-7.5,14.9-12.7l-36.2-27.4l21.3,40.1Z" fill="#d1d2d1"/><path d="M965.68897,1150.48646c4.2,1.3,8.6,2,13.3,2c2.1,0,4.2-.2,6.2-.4l-6.2-45-13.3,43.4Z" fill="#d1d2d1"/><path d="M938.78897,1128.38646c3.1,5.8,7.5,10.9,12.7,14.9l27.4-36.2-40.1,21.3Z" fill="#d1d2d1"/><path d="M935.48897,1093.78646c-1.3,4.2-2,8.6-2,13.3c0,2.1.2,4.2.4,6.2l45-6.2-43.4-13.3Z" fill="#d1d2d1"/><path d="M957.58897,1066.98646c-5.8,3.1-10.9,7.5-14.9,12.7l36.2,27.4-21.3-40.1Z" fill="#d1d2d1"/></g><path d="M992.58896,1107.08644c0,3.633466-1.443389,7.118115-4.012637,9.687363s-6.053897,4.012637-9.687363,4.012637-7.118115-1.443389-9.687363-4.012637-4.012637-6.053897-4.012637-9.687363s1.443389-7.118115,4.012637-9.687363s6.053897-4.012637,9.687363-4.012637s7.118115,1.443389,9.687363,4.012637s4.012637,6.053897,4.012637,9.687363Z" fill="#565f65"/><path d="M985.18896,1107.08644c0,3.479394-2.820606,6.3-6.3,6.3s-6.3-2.820606-6.3-6.3s2.820606-6.3,6.3-6.3s6.3,2.820606,6.3,6.3Z" fill="#9aa7b0"/></g><path d="M1151.28897,1047.38646c.1-4.3-.2-8.1-.8-11.5l-65,21.1l65.8-9.6Z" fill="#ca1529"/><path d="M224.48897,1059.28646c2.2,20.5,8,36.5,8,36.5c10.4,6.1,40.5,5,40.5,5v-25.2c-23.6.6-41.9-11.3-48.5-16.3Z" fill="#ca1529"/><g><path d="M242.18897,1015.78646c.3-1.6,16.4-9.5,23.2-8.3c6.9,1.2,22.2,29.3,22,28.7s-43.6,3.2-43.6,3.2-3.5-12.1-1.6-23.6Z" fill="#d1d2d1"/><path d="M287.38897,1036.18646c.2.6-15.2-27.5-22-28.7-2.2-.4-5.4.2-8.8,1.2c4.9,9.2,9,18.8,12.6,28.6c9.6-.7,18.1-1.3,18.2-1.1Z" fill="#efc41a"/></g><path d="M223.68897,1041.58646c-.1,3.8,0,7.6.2,11.2c5.6,3,10,4.2,10,4.2v-42.7l-7.7-1.8c-1,5.4-2.1,14.4-2.5,29.1Z" fill="#898a8e"/><g><path d="M573.08897,983.38646l72.7-72.7c-5,.3-10.1.6-15.2.8-.4.1-.8.2-1.1.3l-71.2,71.2c4.6.1,9.6.3,14.8.4Z" fill="#b7e4f6"/><path d="M669.68897,909.18646c-2.8.2-5.7.3-8.6.5l-73.8,73.8c4.8,0,9.9.1,15.2,0l74.8-74.8c-2.5.2-5,.4-7.6.5Z" fill="#b7e4f6"/><path d="M708.68897,906.98646c-5.3.3-10.7.6-16.1.9l-75.6,75.6c5-.1,10.2-.1,15.5-.2l76.2-76.3Z" fill="#b7e4f6"/><path d="M735.28897,978.58646c5.6-.4,11-.7,16.3-1.1l69.1-69.1c-4.6-.5-9.3-1-13.9-1.3l-71.5,71.5Z" fill="#b7e4f6"/><path d="M846.58897,912.18646c-4.4-.8-8.8-1.5-13.1-2.1l-66.5,66.5c5.6-.4,11.1-.7,16.3-1l63.3-63.4Z" fill="#b7e4f6"/><path d="M871.08897,917.28646c-4.2-1-8.3-1.9-12.4-2.8l-60,60c5.7-.4,11.1-.7,16.3-1l56.1-56.2Z" fill="#b7e4f6"/></g><path d="M732.78897,899.78646l-17.4,83.1c0,0,34.7-2.5,34.3-4s4.8-79.2,4.8-79.2h-21.7v.1Z" fill="#17191b"/><path d="M1102.78897,1039.48646h-22.3c-2.2,0-3.9-1.8-3.9-3.9v0c0-2.2,1.8-3.9,3.9-3.9h22.3c2.2,0,3.9,1.8,3.9,3.9v0c0,2.1-1.8,3.9-3.9,3.9Z" fill="#ad1015"/><path d="M889.18895,917.98646l-2.89997,54.59998h10.89997v-52.19996l-8-2.40002Z" fill="#17191b"/></g></g></g></g><line x1="812.50159" y1="101.47726" x2="744.20143" y2="33.1771" fill="none" stroke="#000" stroke-width="3"/><line x1="812.50158" y1="168.52278" x2="744.20142" y2="100.22262" transform="matrix(0-1 1 0 643.978 912.724)" fill="none" stroke="#000" stroke-width="3"/><line x1="811.36522" y1="100.34089" x2="880.39412" y2="100.34089" fill="none" stroke="#000" stroke-width="3"/><line x1="745.45607" y1="34.43173" x2="91.84476" y2="34.43173" fill="none" stroke="#000" stroke-width="3"/><line x1="744.3197" y1="168.52278" x2="91.68115" y2="168.52278" fill="none" stroke="#000" stroke-width="3"/><line x1="93.18268" y1="34.43173" x2="93.18268" y2="168.56611" fill="none" stroke="#000" stroke-width="3"/><rect width="650.001" height="131.818" rx="0" ry="0" transform="translate(95.963924 35.5681)" fill="#070707" stroke="#fff"/><path d="M810.07839,100.7088L744.62348,35.11813v132.13942l65.45491-66.54875Z" transform="translate(1.341444 0)" fill="#0b0b0b" stroke="#fffafa"/><rect width="6.42201" height="130.275" rx="0" ry="0" transform="translate(738.529 35.8713)" fill="#101010" stroke="#fff2f2"/><path d="M323.08388,210.13267h.56913l.17587-.54067.17587.54067h.56913l-.46044.33415.17588.54067-.46044-.33416-.46044.33416.17588-.54067-.46044-.33415Z" fill="#fff" stroke="#000" stroke-width="0"/><text dx="0" dy="0" font-family="&quot;Poppins Light&quot;" font-size="50" font-weight="400" transform="translate(127.11136 119.03619)" fill="#fff" stroke="#000" stroke-width="0"><tspan y="0" font-weight="400" stroke-width="0"><![CDATA[
Thanks for visiting website 
]]></tspan></text></g></svg>
