<?xml version="1.0" encoding="utf-8"?>
<!-- Generator: Adobe Illustrator 19.2.1, SVG Export Plug-In . SVG Version: 6.00 Build 0)  -->
<svg version="1.1" xmlns="http://www.w3.org/2000/svg" xmlns:xlink="http://www.w3.org/1999/xlink" x="0px" y="0px"
	 viewBox="0 0 1400 980" style="enable-background:new 0 0 1400 980;" xml:space="preserve">
<style type="text/css">
	.st0{fill:url(#background_1_);}
	.st1{fill-rule:evenodd;clip-rule:evenodd;fill:url(#SVGID_1_);}
	.st2{fill-rule:evenodd;clip-rule:evenodd;fill:url(#SVGID_2_);}
	.st3{fill-rule:evenodd;clip-rule:evenodd;}
	.st4{fill-rule:evenodd;clip-rule:evenodd;fill:#401F3F;}
	.st5{fill-rule:evenodd;clip-rule:evenodd;fill:#391938;}
	.st6{fill:#553054;}
	.st7{fill:#643B62;}
	.st8{fill:#482547;}
	.st9{fill:#401F3F;}
	.st10{fill:#280B27;}
	.st11{fill:#311130;}
	.st12{fill-rule:evenodd;clip-rule:evenodd;fill:#280B27;}
</style>
<g id="layer">
	<linearGradient id="background_1_" gradientUnits="userSpaceOnUse" x1="700" y1="980" x2="700" y2="-3.142668e-008">
		<stop  offset="4.385965e-002" style="stop-color:#E6DAD2"/>
		<stop  offset="0.3947" style="stop-color:#BE7280"/>
		<stop  offset="0.3973" style="stop-color:#BD7180"/>
		<stop  offset="0.5209" style="stop-color:#985A70"/>
		<stop  offset="0.6443" style="stop-color:#7B4864"/>
		<stop  offset="0.7661" style="stop-color:#663B5B"/>
		<stop  offset="0.8856" style="stop-color:#593356"/>
		<stop  offset="1" style="stop-color:#553054"/>
	</linearGradient>
	<rect id="background" x="0" class="st0" width="1400" height="980"/>
</g>
<g id="Layer_8">
	<radialGradient id="SVGID_1_" cx="450.6099" cy="431.6148" r="513.7888" gradientUnits="userSpaceOnUse">
		<stop  offset="1.754386e-002" style="stop-color:#FFFFFF"/>
		<stop  offset="0.1783" style="stop-color:#FDFBFC"/>
		<stop  offset="0.322" style="stop-color:#F8F1F4"/>
		<stop  offset="0.4591" style="stop-color:#F0DEE5"/>
		<stop  offset="0.5922" style="stop-color:#E5C5D1"/>
		<stop  offset="0.7224" style="stop-color:#D6A3B7"/>
		<stop  offset="0.8505" style="stop-color:#C37B97"/>
		<stop  offset="0.9746" style="stop-color:#AE4C72"/>
		<stop  offset="1" style="stop-color:#A9416A"/>
	</radialGradient>
	<path class="st1" d="M830.6,636.1c27.3-57,42.6-120.9,42.6-188.3c0-241.1-195.5-436.6-436.6-436.6C195.5,11.2,0,206.6,0,447.8
		c0,67.4,15.3,131.3,42.6,188.3H830.6z"/>
</g>
<g id="layer2">
	
		<radialGradient id="SVGID_2_" cx="1115.5142" cy="297.6787" r="669.6693" gradientTransform="matrix(1.113 0 0 1 -208.894 0)" gradientUnits="userSpaceOnUse">
		<stop  offset="3.513023e-002" style="stop-color:#CB77B1"/>
		<stop  offset="0.9956" style="stop-color:#61344A;stop-opacity:0.5"/>
	</radialGradient>
	<path class="st2" d="M1400,281c-164.7-2.1-325.8-8.1-489.6-21.7c-218-18.1,181.9-52.5,138.2-56.7l-233.9-22.7
		c-159.1-15.4-147.5-45.4,5.3-45.4c77,0,148.8-6.5,223.3-11.3c43.8-2.9,244.1-27.3,356.7-46.1V53.4c-73.6-5.2-152.1-21.1-229.1-21.1
		c-14.8,0,132.2-10.1,210.3-20H596.3c9.3,4.3,21.3,10.7,37.7,14.3C813.3,66,1159.4,70.5,862.6,72c-125.4,0.6-293-16.1-409.4,17
		c-202.2,57.5,368.2,119.1,148.9,119.1c-169.3,0-711.1,15.2-542.3,22.7L315,242.2c82.6,3.7,747.9,96.4,446.6,96.4
		c-283.6,0,229.8,79.4,324.3,79.4c42.6,0,299.7,17,164.8,17c-45.1,0-254.2,51.1-212.7,51.1c128.7,0,243.1,34.4,362,59.5V281z"/>
</g>
<g id="Layer_4">
	<path class="st3" d="M148.7,102.6c17.6-2.5,15.9-38.1,53.3-8.5c-8.2,0.3-15.2,1-16.2,7.3c-9.8,1.5-14.6,6.1-13.7,11.1
		c-5.3-5.6-14.9-1-20.6,1.4c-0.9,0.8-1.5,2-1.9,3.2c-1,1.4-1.5,4.1-1.5,4.7c-0.4-0.5-1.8-3.7-2.5-4.4c-6.9-7.7-13.5-4.2-20.2-1.3
		c-4.4-5.5-11.9-11.3-19.6-4.7c-5.7-12.6-14.8-4.3-22.1-6.5c36.8-41.6,38.7-0.6,58.8-1.6l-3.7-8.5l4.9,4.3l3.5-0.2l5.1-4.3
		L148.7,102.6z"/>
	<path class="st3" d="M297.2,136.3c5.4-4.4-2.3-16,16.1-13.6c-2.7,1.8-4.9,3.4-3.9,5.7c-3,2.5-3.7,5-2.3,6.5
		c-2.9-0.8-5.2,2.7-6.6,4.6c-0.1,0.4-0.1,1,0,1.5c-0.1,0.7,0.3,1.7,0.4,1.9c-0.2-0.1-1.4-0.9-1.7-1c-3.9-1.2-5.4,1.3-7,3.7
		c-2.6-1-6.3-1.4-7.5,2.4c-4.5-3.1-5.8,1.5-8.7,2.3c4-21.3,12.8-8,19.4-12.4l-3-2.1l2.5,0.4l1.1-0.8l0.8-2.5L297.2,136.3z"/>
	<path class="st3" d="M393,141.1c11.8,4.3,22.7-18.4,36,12.5c-5.2-2.5-9.8-4.4-12.5-0.8c-6.6-2.3-11.1-1.1-12.3,2.4
		c-1.4-5.3-8.9-5.6-13.3-6c-0.8,0.2-1.6,0.7-2.3,1.4c-1.1,0.5-2.3,2-2.5,2.4c0-0.5,0.1-2.9-0.1-3.6c-1.7-7.1-7-7.1-12.2-7.5
		c-0.9-4.9-3.7-11.1-10.6-9.5c0.6-9.8-7.8-7.6-11.6-11.4c36.8-13.6,24.3,12.6,37.2,18.6l0.5-6.6l1.6,4.3l2.3,1l4.6-1L393,141.1z"/>
	<path class="st3" d="M466,55.4c15.2-6.9,4.3-38.5,45.7-21.7c-7.3,2.5-13.4,4.9-12.6,10.9c-8.4,3.9-11.5,9.4-9.4,13.6
		c-6.3-3.7-13.7,3-18.1,6.6c-0.6,1-0.9,2.2-0.9,3.4c-0.5,1.5-0.3,4.1-0.1,4.7c-0.5-0.4-2.6-2.9-3.4-3.3c-8.2-5.2-13.3-0.2-18.5,4.2
		c-5.4-3.8-13.7-7-18.8,1c-8.5-9.8-14.4,0-21.6,0c22.1-47.1,34.6-10.7,52.4-17l-5.6-6.7l5.6,2.6l3.1-1.1l3.5-5.3L466,55.4z"/>
	<path class="st3" d="M119,182c12.7,3.8,22.6-20.8,38.7,10.8c-5.7-2.3-10.6-4-13.2-0.1c-7.1-2-11.8-0.4-12.7,3.3
		c-1.9-5.5-9.8-5.3-14.3-5.5c-0.8,0.3-1.6,0.9-2.3,1.6c-1.1,0.6-2.3,2.3-2.5,2.7c-0.1-0.5-0.1-3.1-0.3-3.7c-2.2-7.4-7.9-7-13.3-7.1
		c-1.2-5.1-4.6-11.4-11.8-9.2c0-10.3-8.6-7.5-13-11.3c37.8-16.7,26.4,11.6,40.3,17.1l0.1-6.9l2,4.4l2.4,0.9l4.8-1.3L119,182z"/>
	<path class="st3" d="M205.2,237c9.8-0.9,9.9-20.6,29.7-3.1c-4.6-0.1-8.4,0.1-9.1,3.6c-5.4,0.5-8.2,3-7.9,5.7
		c-2.8-3.3-8.2-1-11.4,0.1c-0.5,0.4-0.9,1-1.2,1.7c-0.6,0.7-1,2.2-1,2.6c-0.2-0.3-0.9-2.1-1.3-2.5c-3.6-4.5-7.4-2.7-11.1-1.3
		c-2.2-3.2-6.3-6.6-10.7-3.2c-2.8-7.1-8-2.8-12-4.2c21.5-21.9,21.4,0.8,32.5,0.8l-1.8-4.8l2.6,2.5l1.9,0l3-2.2L205.2,237z"/>
	<path class="st3" d="M315.3,258.9c4.4-3.1-0.9-12.5,13.2-9.6c-2.2,1.2-4,2.4-3.4,4.2c-2.4,1.7-3.1,3.7-2.2,4.9
		c-2.2-0.8-4.2,1.8-5.4,3.2c-0.1,0.3-0.1,0.7-0.1,1.1c-0.1,0.5,0.1,1.3,0.2,1.5c-0.2-0.1-1-0.8-1.3-0.8c-2.9-1.1-4.2,0.7-5.6,2.4
		c-1.9-0.9-4.8-1.4-5.9,1.4c-3.3-2.6-4.6,0.9-6.9,1.3c4.2-16.3,10.4-5.5,15.7-8.5l-2.2-1.8l1.9,0.5l0.9-0.5l0.8-1.9L315.3,258.9z"/>
	<path class="st3" d="M551.1,263.7c7.4,2.1,12.8-12.2,22.4,5.9c-3.3-1.3-6.1-2.2-7.6,0.1c-4.1-1.1-6.8-0.1-7.3,2
		c-1.1-3.1-5.7-3-8.3-3c-0.5,0.2-0.9,0.5-1.3,0.9c-0.6,0.4-1.3,1.3-1.4,1.6c0-0.3-0.1-1.8-0.2-2.1c-1.4-4.2-4.6-4-7.7-4
		c-0.8-2.9-2.7-6.5-6.9-5.2c-0.1-5.9-5.1-4.2-7.6-6.4c21.6-10,15.3,6.5,23.4,9.5l0-4l1.2,2.5l1.4,0.5l2.8-0.8L551.1,263.7z"/>
	<path class="st3" d="M701,251.6c4.1-2.2,0.5-10.9,12.4-7c-2,0.8-3.7,1.6-3.3,3.3c-2.3,1.3-3.1,2.9-2.4,4c-1.8-0.9-3.8,1.1-5,2.2
		c-0.1,0.3-0.2,0.6-0.2,1c-0.1,0.4,0,1.2,0.1,1.3c-0.1-0.1-0.8-0.8-1-0.9c-2.4-1.3-3.7,0.2-5.1,1.5c-1.6-1-4-1.7-5.3,0.6
		c-2.6-2.6-4.1,0.3-6.1,0.4c5.3-13.7,9.5-3.7,14.4-5.8l-1.7-1.8l1.6,0.6l0.8-0.4l0.9-1.5L701,251.6z"/>
	<path class="st3" d="M599.3,180.1c6.6-0.4,7.1-13.6,19.9-1.4c-3-0.1-5.6-0.1-6.2,2.2c-3.7,0.2-5.6,1.8-5.4,3.7
		c-1.8-2.3-5.5-0.9-7.6-0.2c-0.3,0.3-0.6,0.7-0.8,1.1c-0.4,0.5-0.7,1.5-0.7,1.7c-0.1-0.2-0.6-1.4-0.8-1.7c-2.3-3.1-4.9-2-7.4-1.1
		c-1.4-2.2-4-4.6-7.1-2.4c-1.7-4.8-5.3-2.1-8-3.1c14.9-14.2,14.3,1,21.8,1.3l-1.1-3.3l1.7,1.7l1.3,0l2-1.4L599.3,180.1z"/>
	<path class="st3" d="M600.3,372.4c9.1-1.2,8.4-19.5,27.4-4c-4.2,0.1-7.8,0.4-8.3,3.7c-5,0.7-7.5,3.1-7.1,5.6
		c-2.7-2.9-7.7-0.6-10.6,0.6c-0.4,0.4-0.8,1-1,1.6c-0.5,0.7-0.8,2.1-0.8,2.4c-0.2-0.3-0.9-1.9-1.3-2.3c-3.5-4-6.9-2.2-10.4-0.8
		c-2.2-2.9-6.1-5.9-10-2.5c-2.9-6.5-7.6-2.3-11.3-3.5c19.1-21.1,19.9-0.1,30.2-0.5l-1.9-4.4l2.5,2.2l1.8-0.1l2.7-2.2L600.3,372.4z"
		/>
</g>
<g id="Layer_6">
	<g>
		<path class="st4" d="M0,432.6c20.8-20.3,42.3-39.9,64.6-58.6c14.5-12.2,30.2-24.4,48.9-27c22.6-3.1,44.4,8.5,66.8,12.8
			c39.5,7.6,80-7.9,114-29.3s64.1-48.8,98.9-69c4.3-2.5,9.2-5,14.1-4.1c4.7,0.9,8.3,4.6,11.3,8.2c27.5,32.5,43.4,73.6,70.3,106.6
			s72.4,58,111.4,41.1c14.6-6.3,26.4-17.8,40-26.1c13.6-8.3,31.3-13.4,45.3-5.9c15.3,8.3,20,27.4,26.9,43.5s23.1,32.5,39.2,26
			c6.2-2.5,10.7-7.9,14.9-13.1C816.9,376,870.5,317,927.2,261.2c4.7-4.6,9.8-9.4,16.3-10.2c5.1-0.6,10.1,1.3,14.6,3.8
			c30.6,17.1,41.2,56.7,68,79.2c11.7,9.8,26,16,38,25.5c55.3,43.7,40.3,134.5,81.7,191.5c2.2,3.1,4.8,6.2,8.5,7.3
			c6.9,2.2,13.5-3.5,18.5-8.6c25.6-26.4,51.2-52.9,76.8-79.3c3.8-3.9,8.2-8.1,13.7-8.1c4.8,0,8.9,3.4,12.5,6.6
			c33.5,30,124.2,109.8,124.2,109.8s1.3,205.9,0,273.4H0V432.6z"/>
	</g>
	<g>
		<path class="st5" d="M426.3,386c0,0,2,1,4,1c7-2,11-9,18-9c0,22-7,43-11,65c-1,8-2,17,4,23c15,12,36,12,47,28c12,21,17,43,26,64
			c1-36-12-71-13-107c0-14-4-41,9-40c9,1,16,16,27,22c18.7,8.3,32.5-3.5,46.6-14.8c-34.8,5.1-71.8-17.3-94.9-45.8
			c-26.9-33.1-42.8-74.1-70.3-106.6c-2.1-2.5-4.4-5-7.2-6.7C437.5,294.1,431.5,343.1,426.3,386z"/>
	</g>
	<g>
		<path class="st5" d="M683.3,422c-5,15,19,7,21,16c3,16-26,19-38,29c-10,8-28,15-26,29c25-2,53-22,74-6c12,9,10,28,14,44
			c4,18,4,37,16,50c7,7,7-14,9-20c7.6-39.9,3.3-78.8,5.1-117.2c-2,1.7-4.1,3.1-6.5,4c-16.1,6.5-32.3-9.9-39.2-26
			c-6.9-16-11.6-35.2-26.9-43.5c-1.4-0.7-2.7-1.3-4.2-1.8C687.2,392.9,689.3,407.2,683.3,422z"/>
	</g>
	<g>
		<path class="st5" d="M980.3,346c-9,37-31,78-4,111c8-25,3-61,27-77c1,38,29,66,45,98s-6,69,2,105c5,24,0,62,26,67c7,1,10-14,16-21
			c21.8-23.7,47.9-45,67.1-70.3c-1.7,0.3-3.4,0.3-5.1-0.3c-3.6-1.1-6.2-4.3-8.5-7.3c-41.4-57-26.4-147.8-81.7-191.5
			c-12-9.5-26.3-15.6-38-25.5c-26.7-22.4-37.3-61.7-67.6-78.9C978.3,281.3,988.6,315.3,980.3,346z"/>
	</g>
	<g>
		<path class="st5" d="M1275.8,468.9c-1.3-1.1-2.6-2.2-3.9-3.3c9.4,21.2,4.6,45.8,13.5,68.4c3,9,12,13,19,20c13,10,29,24,22,42
			c-7,22-17,44-21,66c5-2,8-6,13-9c9-7,22-29,27-19c14.5,32.1,33.7,60.6,55.3,87.9c-0.1-72.3-0.6-143.2-0.6-143.2
			S1309.3,498.9,1275.8,468.9z"/>
	</g>
	<g>
		<path class="st5" d="M170.3,434c20-14,34-30,48-49c7.9-10.2,15.8-20.2,23.9-29.7c-20.2,6.2-41.2,8.6-61.9,4.7
			c-20.1-3.9-39.7-13.6-59.8-13.3c13.6,18.3,11.3,45.4,13.8,68.4C136.3,432,154.3,444,170.3,434z"/>
	</g>
</g>
<g id="Layer_7">
	<g>
		<g>
			<polygon class="st6" points="53.9,561.4 10.1,670.6 53.9,670.6 97.8,670.6 			"/>
			<polygon class="st6" points="53.9,531.3 17.4,640.5 53.9,640.5 90.5,640.5 			"/>
			<polygon class="st6" points="53.9,501.2 22.6,610.3 53.9,610.3 85.3,610.3 			"/>
		</g>
		<g>
			<polygon class="st6" points="97.8,511.5 53.9,620.6 97.8,620.6 141.6,620.6 			"/>
			<polygon class="st6" points="97.8,481.3 61.2,590.5 97.8,590.5 134.3,590.5 			"/>
			<polygon class="st6" points="97.8,451.2 66.4,560.4 97.8,560.4 129.1,560.4 			"/>
		</g>
		<g>
			<polygon class="st6" points="129.9,473 86,582.1 129.9,582.1 173.8,582.1 			"/>
			<polygon class="st6" points="129.9,442.9 93.4,552 129.9,552 166.4,552 			"/>
			<polygon class="st6" points="129.9,412.7 98.5,521.9 129.9,521.9 161.3,521.9 			"/>
		</g>
		<g>
			<polygon class="st6" points="208.5,458.8 164.7,567.9 208.5,567.9 252.4,567.9 			"/>
			<polygon class="st6" points="208.5,428.7 172,537.8 208.5,537.8 245.1,537.8 			"/>
			<polygon class="st6" points="208.5,398.5 177.2,507.7 208.5,507.7 239.9,507.7 			"/>
		</g>
		<g>
			<polygon class="st6" points="174.8,477.9 131,587 174.8,587 218.7,587 			"/>
			<polygon class="st6" points="174.8,447.7 138.3,556.9 174.8,556.9 211.3,556.9 			"/>
			<polygon class="st6" points="174.8,417.6 143.4,526.8 174.8,526.8 206.2,526.8 			"/>
		</g>
		<g>
			<polygon class="st6" points="241,510.6 197.2,619.8 241,619.8 284.9,619.8 			"/>
			<polygon class="st6" points="241,480.5 204.5,589.6 241,589.6 277.6,589.6 			"/>
			<polygon class="st6" points="241,450.4 209.7,559.5 241,559.5 272.4,559.5 			"/>
		</g>
		<g>
			<polygon class="st6" points="278.1,547.3 234.3,656.4 278.1,656.4 322,656.4 			"/>
			<polygon class="st6" points="278.1,517.1 241.6,626.3 278.1,626.3 314.7,626.3 			"/>
			<polygon class="st6" points="278.1,487 246.8,596.2 278.1,596.2 309.5,596.2 			"/>
		</g>
		<g>
			<polygon class="st6" points="304.2,556.2 260.4,665.3 304.2,665.3 348.1,665.3 			"/>
			<polygon class="st6" points="304.2,526.1 267.7,635.2 304.2,635.2 340.8,635.2 			"/>
			<polygon class="st6" points="304.2,495.9 272.9,605.1 304.2,605.1 335.6,605.1 			"/>
		</g>
		<g>
			<polygon class="st6" points="330.6,546.3 286.7,655.4 330.6,655.4 374.4,655.4 			"/>
			<polygon class="st6" points="330.6,516.2 294,625.3 330.6,625.3 367.1,625.3 			"/>
			<polygon class="st6" points="330.6,486 299.2,595.2 330.6,595.2 361.9,595.2 			"/>
		</g>
		<g>
			<polygon class="st6" points="371.6,527.6 327.8,636.7 371.6,636.7 415.5,636.7 			"/>
			<polygon class="st6" points="371.6,497.4 335.1,606.6 371.6,606.6 408.2,606.6 			"/>
			<polygon class="st6" points="371.6,467.3 340.3,576.5 371.6,576.5 403,576.5 			"/>
		</g>
		<g>
			<polygon class="st6" points="403,529.8 359.1,639 403,639 446.8,639 			"/>
			<polygon class="st6" points="403,499.7 366.5,608.9 403,608.9 439.5,608.9 			"/>
			<polygon class="st6" points="403,469.6 371.6,578.7 403,578.7 434.3,578.7 			"/>
		</g>
		<g>
			<polygon class="st6" points="444.4,578.1 400.6,687.2 444.4,687.2 488.3,687.2 			"/>
			<polygon class="st6" points="444.4,548 407.9,657.1 444.4,657.1 481,657.1 			"/>
			<polygon class="st6" points="444.4,517.8 413.1,627 444.4,627 475.8,627 			"/>
		</g>
		<g>
			<polygon class="st6" points="475.8,559.5 431.9,668.6 475.8,668.6 519.6,668.6 			"/>
			<polygon class="st6" points="475.8,529.4 439.3,638.5 475.8,638.5 512.3,638.5 			"/>
			<polygon class="st6" points="475.8,499.2 444.4,608.4 475.8,608.4 507.1,608.4 			"/>
		</g>
		<g>
			<polygon class="st6" points="524.9,561.9 466.1,708.2 524.9,708.2 583.7,708.2 			"/>
			<polygon class="st6" points="524.9,521.5 476,667.8 524.9,667.8 573.9,667.8 			"/>
			<polygon class="st6" points="524.9,481.1 482.9,627.4 524.9,627.4 567,627.4 			"/>
		</g>
		<g>
			<polygon class="st6" points="583.7,566.3 539.9,675.5 583.7,675.5 627.6,675.5 			"/>
			<polygon class="st6" points="583.7,536.2 547.2,645.3 583.7,645.3 620.3,645.3 			"/>
			<polygon class="st6" points="583.7,506.1 552.4,615.2 583.7,615.2 615.1,615.2 			"/>
		</g>
		<g>
			<polygon class="st6" points="614.4,543.5 570.6,652.6 614.4,652.6 658.3,652.6 			"/>
			<polygon class="st6" points="614.4,513.3 577.9,622.5 614.4,622.5 651,622.5 			"/>
			<polygon class="st6" points="614.4,483.2 583.1,592.4 614.4,592.4 645.8,592.4 			"/>
		</g>
		<g>
			<polygon class="st6" points="655.1,538.5 611.3,647.6 655.1,647.6 699,647.6 			"/>
			<polygon class="st6" points="655.1,508.4 618.6,617.5 655.1,617.5 691.7,617.5 			"/>
			<polygon class="st6" points="655.1,478.3 623.8,587.4 655.1,587.4 686.5,587.4 			"/>
		</g>
		<g>
			<polygon class="st6" points="684.1,562.9 640.3,672.1 684.1,672.1 728,672.1 			"/>
			<polygon class="st6" points="684.1,532.8 647.6,642 684.1,642 720.6,642 			"/>
			<polygon class="st6" points="684.1,502.7 652.8,611.8 684.1,611.8 715.5,611.8 			"/>
		</g>
		<g>
			<polygon class="st6" points="715.5,555.1 671.6,664.2 715.5,664.2 759.3,664.2 			"/>
			<polygon class="st6" points="715.5,525 678.9,634.1 715.5,634.1 752,634.1 			"/>
			<polygon class="st6" points="715.5,494.9 684.1,604 715.5,604 746.8,604 			"/>
		</g>
		<g>
			<polygon class="st6" points="759.3,522.8 715.5,632 759.3,632 803.2,632 			"/>
			<polygon class="st6" points="759.3,492.7 722.8,601.9 759.3,601.9 795.9,601.9 			"/>
			<polygon class="st6" points="759.3,462.6 728,571.7 759.3,571.7 790.7,571.7 			"/>
		</g>
		<g>
			<polygon class="st6" points="788.3,547.3 744.5,656.4 788.3,656.4 832.2,656.4 			"/>
			<polygon class="st6" points="788.3,517.2 751.8,626.3 788.3,626.3 824.9,626.3 			"/>
			<polygon class="st6" points="788.3,487.1 757,596.2 788.3,596.2 819.7,596.2 			"/>
		</g>
		<g>
			<polygon class="st6" points="819.7,539.4 775.8,648.6 819.7,648.6 863.5,648.6 			"/>
			<polygon class="st6" points="819.7,509.3 783.1,618.5 819.7,618.5 856.2,618.5 			"/>
			<polygon class="st6" points="819.7,479.2 788.3,588.4 819.7,588.4 851,588.4 			"/>
		</g>
		<g>
			<polygon class="st6" points="880,543.1 836.2,652.3 880,652.3 923.9,652.3 			"/>
			<polygon class="st6" points="880,513 843.5,622.1 880,622.1 916.6,622.1 			"/>
			<polygon class="st6" points="880,482.9 848.7,592 880,592 911.4,592 			"/>
		</g>
		<g>
			<polygon class="st6" points="909,567.6 865.2,676.7 909,676.7 952.9,676.7 			"/>
			<polygon class="st6" points="909,537.4 872.5,646.6 909,646.6 945.5,646.6 			"/>
			<polygon class="st6" points="909,507.3 877.6,616.5 909,616.5 940.4,616.5 			"/>
		</g>
		<g>
			<polygon class="st6" points="940.4,559.7 896.5,668.9 940.4,668.9 984.2,668.9 			"/>
			<polygon class="st6" points="940.4,529.6 903.8,638.7 940.4,638.7 976.9,638.7 			"/>
			<polygon class="st6" points="940.4,499.5 909,608.6 940.4,608.6 971.7,608.6 			"/>
		</g>
		<g>
			<polygon class="st6" points="988.3,598 944.4,707.2 988.3,707.2 1032.1,707.2 			"/>
			<polygon class="st6" points="988.3,567.9 951.7,677.1 988.3,677.1 1024.8,677.1 			"/>
			<polygon class="st6" points="988.3,537.8 956.9,646.9 988.3,646.9 1019.6,646.9 			"/>
		</g>
		<g>
			<polygon class="st6" points="1033.3,617.5 989.4,726.7 1033.3,726.7 1077.1,726.7 			"/>
			<polygon class="st6" points="1033.3,587.4 996.7,696.5 1033.3,696.5 1069.8,696.5 			"/>
			<polygon class="st6" points="1033.3,557.3 1001.9,666.4 1033.3,666.4 1064.6,666.4 			"/>
		</g>
		<g>
			<polygon class="st6" points="1108.4,635.2 1064.6,744.3 1108.4,744.3 1152.3,744.3 			"/>
			<polygon class="st6" points="1108.4,605.1 1071.9,714.2 1108.4,714.2 1145,714.2 			"/>
			<polygon class="st6" points="1108.4,574.9 1077.1,684.1 1108.4,684.1 1139.8,684.1 			"/>
		</g>
	</g>
	<g>
		<g>
			<polygon class="st7" points="69.8,570.4 23.3,692.5 69.8,692.5 116.3,692.5 			"/>
			<polygon class="st7" points="69.8,536.7 31.1,658.8 69.8,658.8 108.5,658.8 			"/>
			<polygon class="st7" points="69.8,503 36.6,625.1 69.8,625.1 103,625.1 			"/>
		</g>
		<g>
			<polygon class="st7" points="109.5,589.9 63,712 109.5,712 156,712 			"/>
			<polygon class="st7" points="109.5,556.2 70.8,678.3 109.5,678.3 148.2,678.3 			"/>
			<polygon class="st7" points="109.5,522.5 76.3,644.6 109.5,644.6 142.8,644.6 			"/>
		</g>
		<g>
			<polygon class="st7" points="143.6,546.8 97.1,668.9 143.6,668.9 190.1,668.9 			"/>
			<polygon class="st7" points="143.6,513.1 104.8,635.2 143.6,635.2 182.3,635.2 			"/>
			<polygon class="st7" points="143.6,479.4 110.3,601.5 143.6,601.5 176.8,601.5 			"/>
		</g>
		<g>
			<polygon class="st7" points="206.1,555.6 159.6,677.7 206.1,677.7 252.6,677.7 			"/>
			<polygon class="st7" points="206.1,521.9 167.3,644 206.1,644 244.8,644 			"/>
			<polygon class="st7" points="206.1,488.2 172.8,610.3 206.1,610.3 239.3,610.3 			"/>
		</g>
		<g>
			<polygon class="st7" points="191.2,552.3 144.7,674.4 191.2,674.4 237.7,674.4 			"/>
			<polygon class="st7" points="191.2,518.6 152.4,640.7 191.2,640.7 229.9,640.7 			"/>
			<polygon class="st7" points="191.2,484.9 157.9,607 191.2,607 224.4,607 			"/>
		</g>
		<g>
			<polygon class="st7" points="261.4,588.9 214.9,711 261.4,711 307.9,711 			"/>
			<polygon class="st7" points="261.4,555.2 222.7,677.3 261.4,677.3 300.1,677.3 			"/>
			<polygon class="st7" points="261.4,521.5 228.2,643.6 261.4,643.6 294.6,643.6 			"/>
		</g>
		<g>
			<polygon class="st7" points="300.7,629.9 254.2,752 300.7,752 347.2,752 			"/>
			<polygon class="st7" points="300.7,596.2 262,718.3 300.7,718.3 339.5,718.3 			"/>
			<polygon class="st7" points="300.7,562.5 267.5,684.6 300.7,684.6 334,684.6 			"/>
		</g>
		<g>
			<polygon class="st7" points="328.4,639.9 281.9,762 328.4,762 374.9,762 			"/>
			<polygon class="st7" points="328.4,606.2 289.7,728.3 328.4,728.3 367.1,728.3 			"/>
			<polygon class="st7" points="328.4,572.5 295.2,694.6 328.4,694.6 361.6,694.6 			"/>
		</g>
		<g>
			<polygon class="st7" points="369.1,643.6 322.6,765.7 369.1,765.7 415.6,765.7 			"/>
			<polygon class="st7" points="369.1,609.9 330.4,732 369.1,732 407.8,732 			"/>
			<polygon class="st7" points="369.1,576.2 335.8,698.3 369.1,698.3 402.3,698.3 			"/>
		</g>
		<g>
			<polygon class="st7" points="399.8,671 353.3,793.1 399.8,793.1 446.3,793.1 			"/>
			<polygon class="st7" points="399.8,637.3 361.1,759.4 399.8,759.4 438.6,759.4 			"/>
			<polygon class="st7" points="399.8,603.6 366.6,725.7 399.8,725.7 433.1,725.7 			"/>
		</g>
		<g>
			<polygon class="st7" points="433.1,662.2 386.6,784.3 433.1,784.3 479.6,784.3 			"/>
			<polygon class="st7" points="433.1,628.5 394.3,750.6 433.1,750.6 471.8,750.6 			"/>
			<polygon class="st7" points="433.1,594.8 399.8,716.9 433.1,716.9 466.3,716.9 			"/>
		</g>
		<g>
			<polygon class="st7" points="477,664.4 430.5,786.5 477,786.5 523.5,786.5 			"/>
			<polygon class="st7" points="477,630.7 438.3,752.8 477,752.8 515.7,752.8 			"/>
			<polygon class="st7" points="477,597 443.8,719.1 477,719.1 510.3,719.1 			"/>
		</g>
		<g>
			<polygon class="st7" points="507.8,691.7 461.3,813.8 507.8,813.8 554.2,813.8 			"/>
			<polygon class="st7" points="507.8,658 469,780.1 507.8,780.1 546.5,780.1 			"/>
			<polygon class="st7" points="507.8,624.4 474.5,746.5 507.8,746.5 541,746.5 			"/>
		</g>
		<g>
			<polygon class="st7" points="541,683 494.5,805.1 541,805.1 587.5,805.1 			"/>
			<polygon class="st7" points="541,649.3 502.3,771.4 541,771.4 579.7,771.4 			"/>
			<polygon class="st7" points="541,615.6 507.8,737.7 541,737.7 574.2,737.7 			"/>
		</g>
		<g>
			<polygon class="st7" points="593.3,607.1 546.8,729.2 593.3,729.2 639.8,729.2 			"/>
			<polygon class="st7" points="593.3,573.4 554.5,695.5 593.3,695.5 632,695.5 			"/>
			<polygon class="st7" points="593.3,539.7 560,661.8 593.3,661.8 626.5,661.8 			"/>
		</g>
		<g>
			<polygon class="st7" points="624,634.4 577.5,756.5 624,756.5 670.5,756.5 			"/>
			<polygon class="st7" points="624,600.8 585.3,722.9 624,722.9 662.7,722.9 			"/>
			<polygon class="st7" points="624,567.1 590.8,689.2 624,689.2 657.3,689.2 			"/>
		</g>
		<g>
			<polygon class="st7" points="657.3,625.7 610.8,747.8 657.3,747.8 703.7,747.8 			"/>
			<polygon class="st7" points="657.3,592 618.5,714.1 657.3,714.1 696,714.1 			"/>
			<polygon class="st7" points="657.3,558.3 624,680.4 657.3,680.4 690.5,680.4 			"/>
		</g>
		<g>
			<polygon class="st7" points="700.4,620.1 653.9,742.2 700.4,742.2 746.9,742.2 			"/>
			<polygon class="st7" points="700.4,586.4 661.6,708.5 700.4,708.5 739.1,708.5 			"/>
			<polygon class="st7" points="700.4,552.7 667.1,674.8 700.4,674.8 733.6,674.8 			"/>
		</g>
		<g>
			<polygon class="st7" points="731.1,647.5 684.6,769.6 731.1,769.6 777.6,769.6 			"/>
			<polygon class="st7" points="731.1,613.8 692.4,735.9 731.1,735.9 769.8,735.9 			"/>
			<polygon class="st7" points="731.1,580.1 697.9,702.2 731.1,702.2 764.4,702.2 			"/>
		</g>
		<g>
			<polygon class="st7" points="764.4,638.7 717.9,760.8 764.4,760.8 810.8,760.8 			"/>
			<polygon class="st7" points="764.4,605 725.6,727.1 764.4,727.1 803.1,727.1 			"/>
			<polygon class="st7" points="764.4,571.3 731.1,693.4 764.4,693.4 797.6,693.4 			"/>
		</g>
		<g>
			<polygon class="st7" points="810.8,602.6 764.4,724.7 810.8,724.7 857.3,724.7 			"/>
			<polygon class="st7" points="810.8,568.9 772.1,691 810.8,691 849.6,691 			"/>
			<polygon class="st7" points="810.8,535.2 777.6,657.3 810.8,657.3 844.1,657.3 			"/>
		</g>
		<g>
			<polygon class="st7" points="841.6,630 795.1,752.1 841.6,752.1 888.1,752.1 			"/>
			<polygon class="st7" points="841.6,596.3 802.9,718.4 841.6,718.4 880.3,718.4 			"/>
			<polygon class="st7" points="841.6,562.6 808.3,684.7 841.6,684.7 874.8,684.7 			"/>
		</g>
		<g>
			<polygon class="st7" points="901.2,646.7 854.7,768.8 901.2,768.8 947.7,768.8 			"/>
			<polygon class="st7" points="901.2,613 862.5,735.1 901.2,735.1 939.9,735.1 			"/>
			<polygon class="st7" points="901.2,579.3 868,701.4 901.2,701.4 934.4,701.4 			"/>
		</g>
		<g>
			<polygon class="st7" points="966.2,649.6 919.7,771.7 966.2,771.7 1012.7,771.7 			"/>
			<polygon class="st7" points="966.2,615.9 927.5,738 966.2,738 1005,738 			"/>
			<polygon class="st7" points="966.2,582.2 933,704.3 966.2,704.3 999.5,704.3 			"/>
		</g>
		<g>
			<polygon class="st7" points="997,677 950.5,799.1 997,799.1 1043.4,799.1 			"/>
			<polygon class="st7" points="997,643.3 958.2,765.4 997,765.4 1035.7,765.4 			"/>
			<polygon class="st7" points="997,609.6 963.7,731.7 997,731.7 1030.2,731.7 			"/>
		</g>
		<g>
			<polygon class="st7" points="1034.8,685.4 988.3,807.5 1034.8,807.5 1081.3,807.5 			"/>
			<polygon class="st7" points="1034.8,651.7 996,773.8 1034.8,773.8 1073.5,773.8 			"/>
			<polygon class="st7" points="1034.8,618.1 1001.5,740.1 1034.8,740.1 1068,740.1 			"/>
		</g>
		<g>
			<polygon class="st7" points="1063.8,681.3 1017.3,803.4 1063.8,803.4 1110.3,803.4 			"/>
			<polygon class="st7" points="1063.8,647.6 1025,769.7 1063.8,769.7 1102.5,769.7 			"/>
			<polygon class="st7" points="1063.8,613.9 1030.5,736 1063.8,736 1097,736 			"/>
		</g>
	</g>
</g>
<g id="Layer_9">
	<path class="st8" d="M1400,798.4c-201.3-34.5-334.7-107.6-527.4-140.5c-275.1-47-374.1,149.3-414.4,132.9
		c-40.3-16.4-77-24.5-106.4-59.3c-21.2-25.1-49.9,23.2-89.1,26v168.2H1400V798.4z"/>
	<path class="st9" d="M1400,834.7c-15.8,1.1-32.9,2.1-51.6,3c-520.1,23.7-718.7-142.4-1073.3-203C161.9,615.3,71.9,627.9,0,653.3
		V980h1400V834.7z"/>
</g>
<g id="Layer_10">
	<g>
		<g>
			<polygon class="st10" points="163.2,555.4 98.8,724.4 163.2,724.4 227.5,724.4 			"/>
			<polygon class="st10" points="163.2,508.8 109.6,677.7 163.2,677.7 216.8,677.7 			"/>
			<polygon class="st10" points="163.2,462.1 117.2,631.1 163.2,631.1 209.2,631.1 			"/>
		</g>
		<g>
			<polygon class="st10" points="909.3,618.9 888.7,673 909.3,673 929.9,673 			"/>
			<polygon class="st10" points="909.3,604 892.1,658.1 909.3,658.1 926.4,658.1 			"/>
			<polygon class="st10" points="909.3,589.1 894.6,643.1 909.3,643.1 924,643.1 			"/>
		</g>
		<g>
			<polygon class="st10" points="873,618.8 851.1,676.4 873,676.4 894.9,676.4 			"/>
			<polygon class="st10" points="873,602.9 854.8,660.5 873,660.5 891.3,660.5 			"/>
			<polygon class="st10" points="873,587 857.4,644.6 873,644.6 888.7,644.6 			"/>
		</g>
		<g>
			<polygon class="st10" points="930.8,636.6 911.2,688.1 930.8,688.1 950.4,688.1 			"/>
			<polygon class="st10" points="930.8,622.4 914.5,673.9 930.8,673.9 947.2,673.9 			"/>
			<polygon class="st10" points="930.8,608.2 916.8,659.7 930.8,659.7 944.9,659.7 			"/>
		</g>
		<g>
			<polygon class="st10" points="511.2,589.7 465.4,709.9 511.2,709.9 557,709.9 			"/>
			<polygon class="st10" points="511.2,556.5 473,676.8 511.2,676.8 549.3,676.8 			"/>
			<polygon class="st10" points="511.2,523.3 478.5,643.6 511.2,643.6 543.9,643.6 			"/>
		</g>
		<g>
			<polygon class="st10" points="427.5,574.6 378.9,702.2 427.5,702.2 476.1,702.2 			"/>
			<polygon class="st10" points="427.5,539.3 387,667 427.5,667 468,667 			"/>
			<polygon class="st10" points="427.5,504.1 392.7,631.8 427.5,631.8 462.2,631.8 			"/>
		</g>
		<g>
			<polygon class="st11" points="593.3,624.2 535.9,774.8 593.3,774.8 650.6,774.8 			"/>
			<polygon class="st11" points="593.3,582.6 545.5,733.2 593.3,733.2 641.1,733.2 			"/>
			<polygon class="st11" points="593.3,541.1 552.3,691.7 593.3,691.7 634.3,691.7 			"/>
		</g>
		<g>
			<polygon class="st11" points="819.9,603.3 798,660.8 819.9,660.8 841.8,660.8 			"/>
			<polygon class="st11" points="819.9,587.4 801.6,644.9 819.9,644.9 838.2,644.9 			"/>
			<polygon class="st11" points="819.9,571.5 804.2,629 819.9,629 835.6,629 			"/>
		</g>
		<g>
			<polygon class="st11" points="983.9,621.7 954.7,698.4 983.9,698.4 1013.1,698.4 			"/>
			<polygon class="st11" points="983.9,600.5 959.5,677.2 983.9,677.2 1008.2,677.2 			"/>
			<polygon class="st11" points="983.9,579.3 963,656.1 983.9,656.1 1004.8,656.1 			"/>
		</g>
		<g>
			<polygon class="st11" points="727.1,621.5 697.5,699.1 727.1,699.1 756.7,699.1 			"/>
			<polygon class="st11" points="727.1,600 702.5,677.7 727.1,677.7 751.7,677.7 			"/>
			<polygon class="st11" points="727.1,578.6 706,656.3 727.1,656.3 748.2,656.3 			"/>
		</g>
		<g>
			<polygon class="st11" points="892.7,665.2 852.5,770.8 892.7,770.8 932.9,770.8 			"/>
			<polygon class="st11" points="892.7,636 859.2,741.6 892.7,741.6 926.2,741.6 			"/>
			<polygon class="st11" points="892.7,606.9 864,712.5 892.7,712.5 921.5,712.5 			"/>
		</g>
		<g>
			<polygon class="st11" points="518.1,696.9 482.7,789.9 518.1,789.9 553.5,789.9 			"/>
			<polygon class="st11" points="518.1,671.2 488.6,764.2 518.1,764.2 547.6,764.2 			"/>
			<polygon class="st11" points="518.1,645.6 492.8,738.6 518.1,738.6 543.4,738.6 			"/>
		</g>
		<g>
			<polygon class="st11" points="272.9,555.6 193,765.4 272.9,765.4 352.8,765.4 			"/>
			<polygon class="st11" points="272.9,497.7 206.3,707.5 272.9,707.5 339.5,707.5 			"/>
			<polygon class="st11" points="272.9,439.8 215.7,649.6 272.9,649.6 330,649.6 			"/>
		</g>
		<g>
			<polygon class="st10" points="1072.2,651 1021.6,783.9 1072.2,783.9 1122.9,783.9 			"/>
			<polygon class="st10" points="1072.2,614.3 1030.1,747.3 1072.2,747.3 1114.4,747.3 			"/>
			<polygon class="st10" points="1072.2,577.6 1036,710.6 1072.2,710.6 1108.4,710.6 			"/>
		</g>
		<g>
			<polygon class="st10" points="1250,651 1190,783.9 1250,783.9 1310.1,783.9 			"/>
			<polygon class="st10" points="1250,614.3 1200,747.3 1250,747.3 1300,747.3 			"/>
			<polygon class="st10" points="1250,577.6 1207.1,710.6 1250,710.6 1293,710.6 			"/>
		</g>
		<g>
			<polygon class="st11" points="1181.7,586.8 1101.8,796.6 1181.7,796.6 1261.6,796.6 			"/>
			<polygon class="st11" points="1181.7,528.9 1115.1,738.7 1181.7,738.7 1248.3,738.7 			"/>
			<polygon class="st11" points="1181.7,470.9 1124.6,680.8 1181.7,680.8 1238.8,680.8 			"/>
		</g>
		<g>
			<polygon class="st11" points="92.9,661.5 47.8,779.8 92.9,779.8 137.9,779.8 			"/>
			<polygon class="st11" points="92.9,628.9 55.3,747.2 92.9,747.2 130.4,747.2 			"/>
			<polygon class="st11" points="92.9,596.2 60.6,714.5 92.9,714.5 125.1,714.5 			"/>
		</g>
	</g>
</g>
<g id="Layer_11_1_">
	<path class="st12" d="M0,980h1400V834.7c0,0-426.8,31.5-728.4-27S0,796.6,0,796.6L0,980z"/>
	<polygon class="st12" points="969.7,851.9 973.1,821.6 957.8,817.4 959,808.2 974.6,810.8 976.2,793.5 989,794.7 987.1,811.3 
		1002.9,813.5 1001.1,824.6 985.7,822.4 983.5,858.6 	"/>
	<polygon class="st12" points="1035.7,844.3 1033,822 1021.3,821.5 1020.7,814.8 1032.3,814 1030.5,801.3 1040,800.1 1041.3,812.3 
		1053,811.2 1053.6,819.5 1042.2,820.5 1046.7,846.8 	"/>
	<polygon class="st12" points="788.7,828.6 785.8,803.7 772.7,803.2 772,795.7 785,794.9 783,780.7 793.5,779.3 795,792.9 
		808,791.7 808.7,800.9 796,802 801,831.3 	"/>
	<polygon class="st12" points="820.5,831.9 820.4,814.9 811.6,813.5 811.7,808.4 820.6,808.8 820.3,799.1 827.5,798.9 827.5,808.2 
		836.4,808.5 836.2,814.7 827.5,814.5 828.6,834.7 	"/>
	<polygon class="st12" points="874.4,839.1 871.6,826.6 864.9,827 864.2,823.2 870.8,822.1 869,815 874.3,813.7 875.8,820.6 
		882.4,819.3 883.2,824 876.8,825.2 880.8,839.9 	"/>
	<path class="st12" d="M754.3,822.1l0-12.8l-4.8-0.8c-1-0.2-1.7-1-1.7-2.1l0,0c0-1.2,1-2,2.2-2l4.6,0.2l-0.1-5.3
		c0-1.1,0.9-2.1,2-2.1l1.3,0c1.1,0,2.1,0.9,2.1,2.1l0,4.9l4.6,0.1c1.1,0,2,1,2,2.1l0,0.6c0,1.1-1,2-2.1,1.9l-4.5-0.1l0.8,15.2
		L754.3,822.1z"/>
	<path class="st10" d="M491.5,805.2c0-0.5,0-1.1,0-1.9C492.1,804.4,492.1,804.4,491.5,805.2z"/>
	<polygon class="st12" points="264.6,729.9 266.6,703.4 246.1,702.4 244.9,730 219.9,727 218.6,741.6 243.2,747.2 240.3,790.6 
		262.7,790.6 263.3,747.6 287.9,750.1 289.9,732.3 	"/>
	<polygon class="st12" points="348.7,785.5 365.6,785.5 361.2,748.5 379.5,747.8 379.2,734.6 360.4,735.3 359.2,715.7 344,717 
		345.9,737.4 327.2,737.7 327.7,748.6 346.4,750.2 	"/>
	<polygon class="st12" points="430.2,794.6 434.5,760.6 417.3,755.7 418.8,745.4 436.3,748.5 438.3,729.1 452.7,730.6 450.3,749.2 
		468,751.9 465.9,764.4 448.7,761.7 445.7,802.3 	"/>
	<polygon class="st12" points="446.9,821.3 450.9,804.7 442.6,801.3 444,796.3 452.5,798.9 454.5,789.4 461.6,790.9 459.3,800 
		467.9,802.3 466.2,808.4 457.8,806.1 454.1,826 	"/>
	<path id="XMLID_79_" class="st12" d="M949.6,804.2l-7.8-1.4c1.1-6.1-6-12.5-15.7-14.2c-9.8-1.7-18.5,1.9-19.6,8l-7.8-1.4l-8.7,50.1
		h52.6L949.6,804.2z"/>
</g>
</svg>
